<svg xmlns="http://www.w3.org/2000/svg" xmlns:xlink="http://www.w3.org/1999/xlink" width="2560" height="2000" viewBox="0 0 2560 2000">
  <defs>
    <linearGradient id="a" x1="-218.85" y1="2499.27" x2="-218.85" y2="2498.27" gradientTransform="matrix(1986, 0, 0, -520.01, 435917.36, 1301126.07)" gradientUnits="userSpaceOnUse">
      <stop offset="0" stop-color="#87a631"/>
      <stop offset="1" stop-color="#7e9c2a"/>
    </linearGradient>
    <linearGradient id="b" x1="-218.85" y1="2499.53" x2="-218.85" y2="2498.53" gradientTransform="matrix(1861.07, 0, 0, -613, 408558.67, 1533693.06)" gradientUnits="userSpaceOnUse">
      <stop offset="0" stop-color="#fff"/>
      <stop offset="1" stop-color="#dbd6e9"/>
    </linearGradient>
    <linearGradient id="c" x1="-218.9" y1="2499.37" x2="-218.9" y2="2498.37" gradientTransform="matrix(2474, 0, 0, -551.29, 542789.36, 1379357.23)" gradientUnits="userSpaceOnUse">
      <stop offset="0" stop-color="#745db5"/>
      <stop offset="1" stop-color="#654caa"/>
    </linearGradient>
  </defs>
  <g>
    <rect width="2560" height="2000" fill="#f7f5fe"/>
    <path d="M1406.69,988h587.62s-99.63-70.87-175.12-70.87-136.2,35.44-162.66,35.44-34.25-8.48-73.94-8.48C1505.54,944.09,1406.69,988,1406.69,988Z" fill="#fff" fill-rule="evenodd"/>
    <path d="M55.8,848.09c-29.52,0-41.39,4.69-56.42,7.09V892H231.69S132.85,848.09,55.8,848.09Z" fill="#fff" fill-rule="evenodd"/>
    <path d="M639,1018h398s-67.48-48-118.61-48-92.25,24-110.17,24-23.2-5.74-50.08-5.74C706,988.26,639,1018,639,1018Z" fill="#fff" fill-rule="evenodd" opacity="0.75" style="isolation: isolate"/>
    <path d="M2553.61,1000c-51.13,0-118.61,48-118.61,48h125.88v-47.82C2558.47,1000.07,2556.06,1000,2553.61,1000Z" fill="#fff" fill-rule="evenodd" opacity="0.75" style="isolation: isolate"/>
    <path d="M2281.31,1405.83V1440H183.19v-34.21H408.46V1165.74h-4.57v-6.49h10V1151h11.52v-20.85h13.87v-13.36a2,2,0,0,1-1.31-1.69c0-1.14,1.34-2,3-2s3,.91,3,2a2,2,0,0,1-1.35,1.69v13.36h7.48l4.54,8.25h30.28V1151h79.31v8.29h10v6.49h-4.6v240.09h130V1155H697v-2.9h19v-17.42h-2.46v-2.8h17.5v-10h-2.73v-2.15H737v-9.46h8.32v-18.83h2.75v18.83h3.38v-33.78h2.75v33.78h8.32v9.46h7.52v2.15h-1.56v10H786v2.8h-2.46v17.42h19.06v2.9h-2.68v250.79H954.79v-188.4h15.27V1104.69h17.77V1030.2h34.43V989.46h4.84v40.74h10.67V997.66h4.84v32.54h54.49v44.3H1107v30.19h27.68v112.74h10.69v188.4H1727.7l-21.74-333,198.46,28.11v304.93Z" fill="#eee9ff" fill-rule="evenodd"/>
    <path d="M99.75,1486.25v-53.94h75.69v-18.82h51.32v-44.11h42.43v20.23h38.12v-75.74h27.78V1280.3h-10v-6h17.55v-16.35h75.17v16.35h24.56v-16.35H455v16.35h12.62v-16.35h13.89v16.35h29v6h-4.42v89.08h94v-151.9h3.75v-10.33h7v-34.21h2.52v34.21h5.68v-27.33h2.53v27.33h12v10.33h15.15v151.9h45.44v-46.47h28.07v-25H851v20.44h20.87V1209.46H859.57v-2.76h12.31v-4.93h15.59v-8.09H1015v8.09h15.6v4.93H1043v2.76h-12.31v175h153.11v-90.5h46.16v-102.6h6.18v-56.52h29.77v-21.51h16.05v-18.08h5.63v-31H1289v31h5.63v18.08h16.05v21.51h30v56.52h5.95v156.05l13.58-47.58h14.24v-41.75h-6.57v-1.8h145.18v1.8h-6.57v82.78h16.9v43.6h64.56l18-33.23a107.62,107.62,0,0,1-22.37-17.15c-.7-.7-1.4-1.42-2.08-2.14l-6.64,6.21a8.73,8.73,0,1,1-.66-.7l6.64-6.21A106.08,106.08,0,0,1,1559,1296l-8.48,3.12a8.49,8.49,0,0,1,.38,2.54,8.65,8.65,0,1,1-.71-3.44l8.48-3.12a106.69,106.69,0,0,1-6.36-36.43c0-1,0-2,0-3l-10.33-.33a8.64,8.64,0,1,1,0-1l10.33.34a106.12,106.12,0,0,1,9.51-40.36l-8-3.69a8.63,8.63,0,1,1,.36-.9l8,3.72a106.84,106.84,0,0,1,21.29-30.27c.71-.7,1.43-1.4,2.15-2.08l-6.33-6.74a8.66,8.66,0,1,1,.69-.67l6.34,6.75a106,106,0,0,1,36.7-22.33l-3.49-9.91a9,9,0,0,1-2.39.33,8.66,8.66,0,1,1,3.3-.65l3.49,9.91a107.14,107.14,0,0,1,35.07-5.86c1,0,2,0,3,0l.4-12.19a8.66,8.66,0,1,1,1.23.09h-.27l-.4,12.14a106.81,106.81,0,0,1,36.2,7.69l3.64-8.85a8.66,8.66,0,1,1,3.53.75,8.77,8.77,0,0,1-2.63-.41l-3.65,8.88a106.59,106.59,0,0,1,34.49,23.12c.7.71,1.39,1.42,2.08,2.14l6.64-6.21a8.67,8.67,0,1,1,6.64,3.1,8.69,8.69,0,0,1-6-2.4l-6.63,6.21a106.18,106.18,0,0,1,21.85,35.27l8.47-3.12a8.8,8.8,0,0,1-.37-2.53,8.65,8.65,0,1,1,.71,3.44l-8.48,3.11a106.7,106.7,0,0,1,6.36,36.44c0,1,0,2,0,3l10.15.33a8.64,8.64,0,1,1,0,1l-10.15-.33a106.31,106.31,0,0,1-9.51,40.36l9.31,4.3a8.47,8.47,0,1,1-.29.92l-9.43-4.34a106.94,106.94,0,0,1-21.29,30.26c-.71.71-1.43,1.4-2.15,2.08l8.53,9.1a8.57,8.57,0,0,1,4.94-1.55,8.68,8.68,0,1,1-5.7,2.14l-8.47-9a106.91,106.91,0,0,1-19.52,14.41l18,33.23h133V1299.5h69V1168.39h62.06V1138h3.37v30.42h6.94v-56.2h3.37v56.2h8v-40.51h3.37v40.51H2030V1353.1h32v-72.8H2067v-12.69h5v-8.82h36v8.82h5v12.69h18.31v-5.44h8.83v5.44h3.13v-14.56H2156v14.56h3.61l24,121.22h63.49v30.79h67.63v53.94Zm1597.58-118-3.11-8.82a107.13,107.13,0,0,1-35.07,5.85c-1,0-2,0-3,0l-.3,9.08a8.66,8.66,0,0,1,7.91,8.63,8.81,8.81,0,0,1-.13,1.46h35a8.65,8.65,0,0,1-1.28-16.16ZM1632,1325.84a72,72,0,0,0,24.27,5.19l2.17-66.63a5.55,5.55,0,0,1-1.09-.23Zm24.46-62a5.14,5.14,0,0,1-.64-.38L1624,1322a75.27,75.27,0,0,0,7.11,3.46Zm.77,67.27c.63,0,1.25,0,1.88,0a72.15,72.15,0,0,0,23.66-4l-22.18-62.88a5.79,5.79,0,0,1-1.19.18Zm26.45-4.26a72.79,72.79,0,0,0,10.55-4.79l-31.83-58.6a6.67,6.67,0,0,1-.91.51Zm-.43,1.68a73.67,73.67,0,0,1-24.14,4l-1.92,0-1,29.88c1,0,1.93,0,2.9,0a104.08,104.08,0,0,0,34.11-5.7Zm-27,4a73.5,73.5,0,0,1-24.77-5.31l-11.39,27.71a103.92,103.92,0,0,0,35.19,7.48Zm-25.67-5.67a73.44,73.44,0,0,1-7.25-3.52l-14.3,26.33a101,101,0,0,0,10.17,4.89Zm22-61.38-46,43.07a72.82,72.82,0,0,0,15.8,12.56Zm1.46-2.68.39-.73a5.59,5.59,0,0,1-.55-1l-62.64,23a72.65,72.65,0,0,0,14.68,23.69Zm-.5-2.58a5.91,5.91,0,0,1-.2-1.26l-66.71-2.17c0,.62,0,1.25,0,1.88a72.16,72.16,0,0,0,4.31,24.59Zm-.17-2.22a5.86,5.86,0,0,1,.31-1.33l-60.59-27.94a71.89,71.89,0,0,0-6.42,27.1Zm.72-2.2a5.84,5.84,0,0,1,.75-1l-45.62-48.63a72.65,72.65,0,0,0-15.72,21.73Zm1.45-1.7a6.2,6.2,0,0,1,1.24-.75l-22.19-62.88a72.66,72.66,0,0,0-24.66,15Zm2.14-1.07a5.79,5.79,0,0,1,1.19-.18l2.17-66.64-1.88,0a72.15,72.15,0,0,0-23.66,4Zm2.15-.15a5.73,5.73,0,0,1,1.09.24l25.35-61.68a72.09,72.09,0,0,0-24.27-5.19Zm2,.6a6.14,6.14,0,0,1,1.26.87l48.68-45.57a72.93,72.93,0,0,0-24.58-17Zm1.92,1.57a5.72,5.72,0,0,1,.71,1.16l62.64-23a72.5,72.5,0,0,0-14.68-23.68Zm1,2.06a5.91,5.91,0,0,1,.2,1.26l66.71,2.17c0-.62,0-1.25,0-1.87a72.11,72.11,0,0,0-4.3-24.59Zm.17,2.23a6.35,6.35,0,0,1-.31,1.32l60.59,27.94a71.85,71.85,0,0,0,6.42-27.1Zm-.72,2.19c-.11.19-.22.37-.34.54l1.19,2.21,44,46.92a72.91,72.91,0,0,0,15.72-21.72Zm2.67,6.09,29,53.49a72.44,72.44,0,0,0,12.44-9.26Zm28.07,55.72a73,73,0,0,1-10.76,4.88l10,28.24a102.56,102.56,0,0,0,15.09-6.79Zm-104.83,61.15h56.44a8.81,8.81,0,0,1-.13-1.46,8.66,8.66,0,0,1,8.46-8.66l.3-9.08a106.57,106.57,0,0,1-36.2-7.69l-3.64,8.86a8.66,8.66,0,1,1-3.53-.75,8.77,8.77,0,0,1,2.63.4l3.65-8.88a105.54,105.54,0,0,1-10.45-5Zm-4.46-52.42a104.92,104.92,0,0,0,21.69,16.65l14.31-26.34a74.71,74.71,0,0,1-16.16-12.84L1583.65,1330C1584.31,1330.65,1585,1331.34,1585.67,1332Zm-2.68-2.77,21.86-20.47a73.91,73.91,0,0,1-15-24.17L1561.75,1295A103.19,103.19,0,0,0,1583,1329.25Zm-27.76-70.63a103.65,103.65,0,0,0,6.19,35.43l28.12-10.34a73.53,73.53,0,0,1-4.39-25.09q0-1,0-1.92l-29.91-1C1555.24,1256.69,1555.23,1257.65,1555.23,1258.62Zm.07-3.86,29.91,1a73.43,73.43,0,0,1,6.56-27.66l-27.22-12.55A103.16,103.16,0,0,0,1555.3,1254.76Zm30.37-69.55a103.72,103.72,0,0,0-20.72,29.44l27.23,12.55a74.19,74.19,0,0,1,16-22.17l-20.49-21.83Q1586.69,1184.19,1585.67,1185.21Zm2.77-2.67,20.49,21.84a74.15,74.15,0,0,1,25.17-15.32l-10-28.24A103.41,103.41,0,0,0,1588.44,1182.54Zm70.71-27.73a104.34,104.34,0,0,0-34.11,5.69l10,28.24a73.66,73.66,0,0,1,24.14-4c.64,0,1.28,0,1.92,0l1-29.87C1661.08,1154.82,1660.12,1154.81,1659.15,1154.81Zm3.86.07-1,29.88a73.25,73.25,0,0,1,24.77,5.3l11.39-27.7A103.44,103.44,0,0,0,1663,1154.88Zm69.62,30.33a103.78,103.78,0,0,0-33.54-22.49l-11.39,27.7a74.21,74.21,0,0,1,25.09,17.33l21.86-20.47C1734,1186.59,1733.32,1185.89,1732.63,1185.21Zm2.68,2.78-21.86,20.46a74.06,74.06,0,0,1,15,24.18l28.13-10.35A103.21,103.21,0,0,0,1735.31,1188Zm27.76,70.63a103.67,103.67,0,0,0-6.19-35.44l-28.12,10.35a73.45,73.45,0,0,1,4.39,25.09q0,1,0,1.92l29.91,1C1763.05,1260.55,1763.07,1259.58,1763.07,1258.62Zm-.07,3.85-29.91-1a73.39,73.39,0,0,1-6.56,27.66l27.22,12.55A103.25,103.25,0,0,0,1763,1262.47ZM1732.63,1332a103.78,103.78,0,0,0,20.72-29.44L1726.12,1290a74.19,74.19,0,0,1-16,22.17l20.49,21.84C1731.25,1333.38,1732,1332.7,1732.63,1332Zm-2.78,2.68-20.48-21.84a74.81,74.81,0,0,1-12.74,9.47l14.3,26.34A104.19,104.19,0,0,0,1729.85,1334.7Zm-19.21,17.45a105.75,105.75,0,0,1-15.51,7l3.1,8.78a8.8,8.8,0,0,1,2.78-.45,8.65,8.65,0,0,1,2.39,17h24.77Z" fill="#eae4ff" fill-rule="evenodd"/>
    <path d="M2269.81,1455.33l-15.62-71.46h-32v-59.3h4v-5.37h-15.52v-23.1h-1.89v23.1h-10.72v-18.92h-1.89v18.92h-64.63v5.37H2136v120.32h-73.79V1391h-42V1258.55H2024v-6.49h-8.39v-8.32h-9.66v-20.89h-11.65v-14.74h-2.81v14.74h-6.28l-3.8,8.25H1956v12.64h-66.56v8.32H1881v6.49h3.85v86.17h-55.69v84.67l-61.8-18.72v-82.18h10v-6h-17.54v-16.39h-75.1v16.39h-24.54v-16.39h-12.61v16.39h-12.62v-16.39h-13.87v16.39h-29v6h4.42v113.9h-28.17v-1.19h-5.1v-32.46h5.1v-2.61h-5.1v-32.46h5.1v-2.6h-5.1v-32.46h5.1V1336h-5.1v-32.46h5.1V1301h-5.1v-32.46h5.1v-2.61h-5.1v-33.59h8.73v-2.61h4.45v-7.12h-83v-7.92h2.7v-2.29H1451v2.29h2.7v7.92h-20.56v7.12h4.45v2.61h8.73v33.59h-5.1v2.61h5.1V1301h-5.1v2.6h5.1V1336h-5.1v2.6h5.1v32.46h-5.1v2.6h5.1v32.46h-5.1v2.61h5.1v32.46h-5.1v2.6h5.1v26.52H1418V1367.83H1304v74.56h-18.5V1210.11h-13.69v6l-25.25,4.23v-3.89h-13.69v6.18l-25.25,4.22v-4.45H1194v6.74l-25.26,4.22v-3.67H1155v6l-25.26,4.23v-3.17h-13.68v228.1h-19.26v-121.6H1025.5V1418H952.38V1354.2h-9v-20.94h5.34v-2.11H925.06v-6.58h-2.52v6.58H915v-33.8h-1.89v33.8h-9.86v2.11H909v20.94H860.77v48.64h-47l-24.54,62H740V1262.52H674.86v-7.24h3.71v-2.55H629.2v2.55h3.88v157.43H602.35v-52.34h10.93v-4.74H536V1324H521.2v-6.5H488.27v6.5H461.48v112.9H373.59v-83.74h-74v66.14H235.35v42.32H189v-53.2h-60.9v45.36H73v32.1H2345v-30.56Z" fill="#d9ceff" fill-rule="evenodd"/>
    <path d="M1748,1483v-2c0-14,19-31.4,25.52-31.4-1.31-5.88,3-10,8.45-11.24.48-.1,1-.19,1.45-.25a15.15,15.15,0,0,1,2.86-.09c6,.39,11.94,4.51,11.92,13.81,6.54-.18,5.25,7.5,5.25,7.5s10-4.29,12.9,5.18c8.84-2.36,16,4.21,12.41,13.45a55.42,55.42,0,0,1,10-2.48c.21-3.8,1.84-8.76,8.87-9,2.49-5.12,7.54-10.75,17.73-11.48.31-6,6.49-9.82,13.16-10.72a16.37,16.37,0,0,1,2-.18c7.45-.36,14.83,3,14.74,11.37,7.81-.88,10.18,2.13,10.88,3.68a3.57,3.57,0,0,1,.28.85,3.65,3.65,0,0,1,.73-.47c1.12-.59,3.34-1.14,5.24,2.08a27,27,0,0,1,1.9-2.56,20.92,20.92,0,0,1,7.56-5.81,15.67,15.67,0,0,1,7-1.48s4.32-7.39,10.71-4.72c5.73-5.25,12.67-6,18-3.51a14.37,14.37,0,0,1,7.14,7.36,10,10,0,0,1,1.88-1.93,14.64,14.64,0,0,1,1.81-1.22c9-5.17,27.68-4.55,30.31,13.82,7.83-1.44,8.45,6.16,8.45,6.16s6.6-3.5,12.53-2.32c1.11-3.36,3.56-6.37,8.74-6.34a14.54,14.54,0,0,1,6.2-6.85c-.23-3.94,1-8.23,7.58-8.37,3.12-6.07,13.71-8,19.72-2.79,2.57,2.22,4.3,5.74,4.29,10.81a5.31,5.31,0,0,1,3.08.72c3,1.89,2.18,6.78,2.18,6.78s3.16-2.39,6.66-1.5a4.31,4.31,0,0,1,.61.19c.26.1.52.21.78.34,1-6.15,7-10.84,12.85-11.61a10.23,10.23,0,0,1,7.61,1.74,9.71,9.71,0,0,1,2.72-2.7,11,11,0,0,1,7.77-1.64h0a9.49,9.49,0,0,1,2.3.66,8.35,8.35,0,0,1,5.13,7.25c4.85-2.94,12-3.83,15.49,2.91.57-11,21.11-14.84,27.79-6.19a9.87,9.87,0,0,1,2,4.89,12.59,12.59,0,0,1,.1,1.77c10.38-1.17,11.16,4.53,11.16,4.53s3.3-2.91,6,1.61a21.31,21.31,0,0,1,11.17-9,14.76,14.76,0,0,1,5.31-.82s2.4-4.09,6.26-5.08a6.8,6.8,0,0,1,4.25.28l.21.08a22.88,22.88,0,0,1,4.79-5.17,21.63,21.63,0,0,1,2-1.45c4-2.61,8.54-4.07,12.44-3.43a9,9,0,0,1,5.91,3.48,10.75,10.75,0,0,1,2.36-2.29,16.72,16.72,0,0,1,2.32-1.38c9.32-4.58,26.78-3.38,29.32,14.34,7.83-1.43,8.45,6.16,8.45,6.16a28.53,28.53,0,0,1,3.73,1c4.28-15.14,21.17-15.37,29.62-10.53a14.64,14.64,0,0,1,1.81,1.22,10,10,0,0,1,1.88,1.93,14.37,14.37,0,0,1,7.14-7.36c5.33-2.48,12.27-1.74,18,3.51,6.39-2.67,10.71,4.72,10.71,4.72a15.67,15.67,0,0,1,7,1.48,20.92,20.92,0,0,1,7.56,5.81,27,27,0,0,1,1.9,2.56c1.9-3.22,4.12-2.67,5.24-2.08a3.65,3.65,0,0,1,.73.47,3.57,3.57,0,0,1,.28-.85c.7-1.55,3.07-4.56,10.88-3.68-.09-8.33,7.29-11.73,14.74-11.37a16.37,16.37,0,0,1,2,.18c6.67.9,12.85,4.76,13.16,10.72,10.19.73,15.24,6.36,17.73,11.48,7,.27,8.66,5.23,8.87,9a55.42,55.42,0,0,1,10,2.48c-3.57-9.24,3.57-15.81,12.41-13.45,2.91-9.47,12.9-5.18,12.9-5.18s-1.29-7.68,5.25-7.5c0-9.3,5.87-13.42,11.92-13.81a15.15,15.15,0,0,1,2.86.09c.48.06,1,.15,1.45.25,4.1.93,7.6,3.54,8.47,7.33a20.57,20.57,0,0,1,5.08,2,14.64,14.64,0,0,1,1.81,1.22,10,10,0,0,1,1.88,1.93,14.37,14.37,0,0,1,7.14-7.36c5.33-2.48,12.27-1.74,18,3.51,6.39-2.67,10.71,4.72,10.71,4.72a15.67,15.67,0,0,1,7,1.48,20.92,20.92,0,0,1,7.56,5.81,27,27,0,0,1,1.9,2.56V1484Z" fill="#457d53" fill-rule="evenodd"/>
    <path d="M1686,1480.49c0-9.68-9-19.61-9-19.61a33.34,33.34,0,0,0-9.77-3.61s-.62-7.59-8.45-6.16c-2.55-17.72-20-18.92-29.32-14.34a16.72,16.72,0,0,0-2.32,1.38,10.75,10.75,0,0,0-2.36,2.29,9,9,0,0,0-5.91-3.48c-3.9-.64-8.49.82-12.44,3.43a21.63,21.63,0,0,0-2,1.45,23.11,23.11,0,0,0-4.79,5.17l-.21-.08a6.8,6.8,0,0,0-4.25-.28c-3.86,1-6.26,5.08-6.26,5.08a14.76,14.76,0,0,0-5.31.82,21.31,21.31,0,0,0-11.17,9c-2.68-4.52-6-1.61-6-1.61s-.78-5.7-11.16-4.53a11.25,11.25,0,0,0-.1-1.77,9.87,9.87,0,0,0-2-4.89c-6.68-8.65-27.22-4.8-27.79,6.19-3.5-6.74-10.64-5.85-15.49-2.91a8.35,8.35,0,0,0-5.13-7.25,9.49,9.49,0,0,0-2.3-.66h0a11,11,0,0,0-7.77,1.64,9.71,9.71,0,0,0-2.72,2.7,10.23,10.23,0,0,0-7.61-1.74c-5.85.77-11.84,5.46-12.85,11.61a7.67,7.67,0,0,0-.78-.34,4.31,4.31,0,0,0-.61-.19c-3.5-.89-6.66,1.5-6.66,1.5s.82-4.89-2.18-6.78a5.31,5.31,0,0,0-3.08-.72c0-5.07-1.72-8.59-4.29-10.81-6-5.23-16.6-3.28-19.72,2.79-6.55.14-7.81,4.43-7.58,8.37a14.54,14.54,0,0,0-6.2,6.85c-5.18,0-7.63,3-8.74,6.34-5.93-1.18-12.53,2.32-12.53,2.32s-.62-7.6-8.45-6.16c-2.63-18.37-21.29-19-30.31-13.82a14.64,14.64,0,0,0-1.81,1.22,10,10,0,0,0-1.88,1.93,14.37,14.37,0,0,0-7.14-7.36c-5.33-2.48-12.27-1.74-18,3.51-6.39-2.67-10.71,4.72-10.71,4.72a15.67,15.67,0,0,0-7,1.48,20.92,20.92,0,0,0-7.56,5.81,27,27,0,0,0-1.9,2.56c-1.9-3.22-4.12-2.67-5.24-2.08a3.65,3.65,0,0,0-.73.47,3.57,3.57,0,0,0-.28-.85c-.7-1.55-3.07-4.56-10.88-3.68.09-8.33-7.29-11.73-14.74-11.37a16.37,16.37,0,0,0-2,.18c-6.67.9-12.85,4.76-13.16,10.72-10.19.73-15.24,6.36-17.73,11.48-7,.27-8.66,5.23-8.88,9a55.54,55.54,0,0,0-10,2.48c3.57-9.24-3.57-15.81-12.41-13.45-2.91-9.47-12.89-5.18-12.89-5.18s1.28-7.68-5.26-7.5c0-9.3-5.87-13.42-11.92-13.81a15.15,15.15,0,0,0-2.86.09c-.48.06-1,.15-1.45.25-5.4,1.22-9.76,5.36-8.45,11.24-5.52,0-8.87,2.31-10.89,5.51a13.09,13.09,0,0,0-1,1.77,19.59,19.59,0,0,0-1.23,3.7,33.47,33.47,0,0,0-9.22-3.31s-.62-7.59-8.45-6.16c-2.55-17.72-20-18.92-29.32-14.34a16.72,16.72,0,0,0-2.32,1.38,10.75,10.75,0,0,0-2.36,2.29,9,9,0,0,0-5.91-3.48c-3.9-.64-8.49.82-12.44,3.43a21.63,21.63,0,0,0-2,1.45,23.11,23.11,0,0,0-4.79,5.17l-.21-.08a6.8,6.8,0,0,0-4.25-.28c-3.86,1-6.26,5.08-6.26,5.08a14.76,14.76,0,0,0-5.31.82,21.31,21.31,0,0,0-11.17,9c-2.68-4.52-6-1.61-6-1.61s-.78-5.7-11.16-4.53a11.25,11.25,0,0,0-.1-1.77,9.87,9.87,0,0,0-2-4.89c-6.68-8.65-27.22-4.8-27.79,6.19-3.5-6.74-10.64-5.85-15.49-2.91a8.36,8.36,0,0,0-5.12-7.25,9.7,9.7,0,0,0-2.31-.66h0a11,11,0,0,0-7.77,1.64,9.71,9.71,0,0,0-2.72,2.7,10.23,10.23,0,0,0-7.61-1.74c-5.85.77-11.84,5.46-12.85,11.61-.26-.13-.52-.24-.78-.34a4.31,4.31,0,0,0-.61-.19c-3.5-.89-6.66,1.5-6.66,1.5s.82-4.89-2.18-6.78a5.31,5.31,0,0,0-3.08-.72c0-5.07-1.72-8.59-4.29-10.81-6-5.23-16.6-3.28-19.72,2.79-6.55.14-7.82,4.43-7.58,8.37a14.54,14.54,0,0,0-6.2,6.85c-5.18,0-7.63,3-8.74,6.34-5.93-1.18-12.53,2.32-12.53,2.32s-.62-7.6-8.45-6.16c-2.63-18.37-21.29-19-30.31-13.82a14.64,14.64,0,0,0-1.81,1.22,10,10,0,0,0-1.88,1.93,14.37,14.37,0,0,0-7.14-7.36c-5.33-2.48-12.27-1.74-18,3.51-6.39-2.67-10.71,4.72-10.71,4.72a15.67,15.67,0,0,0-7,1.48,20.92,20.92,0,0,0-7.56,5.81,27,27,0,0,0-1.9,2.56c-1.9-3.22-4.12-2.67-5.24-2.08a4,4,0,0,0-.74.47,3.22,3.22,0,0,0-.27-.85c-.7-1.55-3.07-4.56-10.88-3.68.09-8.33-7.29-11.73-14.74-11.37a16.55,16.55,0,0,0-2,.18c-6.67.9-12.85,4.76-13.16,10.72-10.19.73-15.24,6.36-17.73,11.48-7,.27-8.66,5.23-8.88,9a55.54,55.54,0,0,0-10,2.48c3.57-9.24-3.58-15.81-12.41-13.45-2.91-9.47-12.89-5.18-12.89-5.18s1.28-7.68-5.26-7.5c0-9.3-5.87-13.42-11.92-13.81a15.15,15.15,0,0,0-2.86.09c-.49.06-1,.15-1.45.25-5.4,1.22-9.76,5.36-8.45,11.24-5.52,0-8.87,2.31-10.89,5.51a14.31,14.31,0,0,0-1,1.77,17.71,17.71,0,0,0-1.11,3.24,33.31,33.31,0,0,0-8.34-2.85s-.62-7.59-8.45-6.16c-2.55-17.72-20-18.92-29.32-14.34a16.72,16.72,0,0,0-2.32,1.38,10.75,10.75,0,0,0-2.36,2.29,9,9,0,0,0-5.91-3.48c-3.9-.64-8.49.82-12.44,3.43a21.63,21.63,0,0,0-2,1.45,23.11,23.11,0,0,0-4.79,5.17l-.21-.08a6.8,6.8,0,0,0-4.25-.28c-3.86,1-6.26,5.08-6.26,5.08a14.76,14.76,0,0,0-5.31.82,21.31,21.31,0,0,0-11.17,9c-2.68-4.52-6-1.61-6-1.61s-.78-5.7-11.16-4.53a12.59,12.59,0,0,0-.1-1.77,9.87,9.87,0,0,0-2-4.89c-6.68-8.65-27.22-4.8-27.79,6.19-3.5-6.74-10.64-5.85-15.49-2.91a8.36,8.36,0,0,0-5.12-7.25,9.7,9.7,0,0,0-2.31-.66h0a11,11,0,0,0-7.77,1.64,9.71,9.71,0,0,0-2.72,2.7,10.23,10.23,0,0,0-7.61-1.74c-5.85.77-11.84,5.46-12.85,11.61a7.67,7.67,0,0,0-.78-.34,4.31,4.31,0,0,0-.61-.19c-3.5-.89-6.66,1.5-6.66,1.5s.82-4.89-2.18-6.78a5.31,5.31,0,0,0-3.08-.72c0-5.07-1.72-8.59-4.29-10.81-6-5.23-16.59-3.28-19.72,2.79-6.55.14-7.81,4.43-7.58,8.37a14.54,14.54,0,0,0-6.2,6.85c-5.18,0-7.63,3-8.74,6.34-5.93-1.18-12.53,2.32-12.53,2.32s-.62-7.6-8.45-6.16c-2.63-18.37-21.29-19-30.31-13.82a14.64,14.64,0,0,0-1.81,1.22,10,10,0,0,0-1.88,1.93,14.39,14.39,0,0,0-7.13-7.36c-5.34-2.48-12.28-1.74-18,3.51-6.38-2.67-10.71,4.72-10.71,4.72a15.67,15.67,0,0,0-7,1.48,20.92,20.92,0,0,0-7.56,5.81,27,27,0,0,0-1.9,2.56c-1.9-3.22-4.12-2.67-5.24-2.08a4,4,0,0,0-.74.47,3.22,3.22,0,0,0-.27-.85c-.7-1.55-3.07-4.56-10.88-3.68.09-8.33-7.29-11.73-14.74-11.37a16.55,16.55,0,0,0-2,.18c-6.67.9-12.85,4.76-13.16,10.72-10.19.73-15.24,6.36-17.73,11.48-7,.27-8.66,5.23-8.88,9a55.54,55.54,0,0,0-10,2.48c3.57-9.24-3.58-15.81-12.41-13.45-2.91-9.47-12.89-5.18-12.89-5.18s1.29-7.68-5.26-7.5c0-9.3-5.87-13.42-11.92-13.81a15.15,15.15,0,0,0-2.86.09c-.49.06-1,.15-1.45.25-5.4,1.22-9.76,5.36-8.45,11.24-5.52,0-8.87,2.31-10.89,5.51a14.31,14.31,0,0,0-.95,1.77c-2.48,5.45-2,12.4-1.66,14.94.07.59.13.94.13,1a7.07,7.07,0,0,0-5.09-2.66,9.45,9.45,0,0,0-4.84,1.07c.66-4.67-2.25-8.2-5.28-8.67A14.27,14.27,0,0,0,88,1457a7.13,7.13,0,0,0-4.17-2.72c-.54-.15-1.12-.28-1.77-.4-1-.17-2-.3-3.23-.41a11.61,11.61,0,0,0-6-13,9.88,9.88,0,0,0-4.75-1,10.55,10.55,0,0,0-2,.26,13.3,13.3,0,0,0-4.71,2.14,12.19,12.19,0,0,0-4.28-1,24.06,24.06,0,0,0-14.7,1.85,16.72,16.72,0,0,0-2.32,1.38,10.75,10.75,0,0,0-2.36,2.29,9,9,0,0,0-5.91-3.48c-3.9-.64-8.49.82-12.44,3.43a21.63,21.63,0,0,0-2,1.45,22.88,22.88,0,0,0-4.79,5.17l-.21-.08a6.8,6.8,0,0,0-4.25-.28c-3.86,1-6.26,5.08-6.26,5.08a14.76,14.76,0,0,0-5.31.82v27.57" fill="#457d53" fill-rule="evenodd"/>
    <path d="M747.41,1489s6-23.37,27-19.21c5.5-5.61,9.74-3.14,10.49-.49,5.5-5.37,22,.39,20,11.18,6.24-.5,7.74,1.5,7.74,1.5s2.25-14,9.49-13.29c3.25-8.53,16-11.1,20.23-2.79,4.74-3.73,18.47-2.26,18,7.54a4.29,4.29,0,0,1,4.24,3.28s-1-16.81,12-15.55c3.49-5.27,16.73-13,21.72-3,9.74-8.78,32.71-.8,32.47,11.63,4.49-3.36,5.74,2.41,5.74,2.41s15.64-5.91,28.22-5.91,19,9.42,19,15c0,8.18-19,15.74-19,15.74l-219,1.25Z" fill="#386553" fill-rule="evenodd"/>
    <path d="M2335.41,1489s6-23.37,27-19.21c5.5-5.61,9.74-3.14,10.49-.49,5.5-5.37,22,.39,20,11.18,6.24-.5,7.74,1.5,7.74,1.5s2.25-14,9.49-13.29c3.25-8.53,16-11.1,20.23-2.79,4.74-3.73,18.47-2.26,18,7.54a4.29,4.29,0,0,1,4.24,3.28s-1-16.81,12-15.55c3.49-5.27,16.73-13,21.72-3,9.74-8.78,32.71-.8,32.47,11.63,4.49-3.36,5.74,2.41,5.74,2.41s15.64-5.91,28.22-5.91,19,9.42,19,15c0,8.18-19,15.74-19,15.74l-219,1.25Z" fill="#386553" fill-rule="evenodd"/>
    <path d="M1005.54,1481.74s.17-6.32,5.93-6.61c-.82-2.54,2.64-2.54,3.3-.89,3.79-3.15,14.17-4.35,14.17,2.55,5.27-2.4,6.09,1,6.09,1s3.13-9.15,11.7-8.1c3.46-5.24,8.57-4.49,9.89-1.79,3-6.75,11-9.6,15.65-5.4,3-2,4.61,2.1,4.61,2.1s3.13-5.1,7.74-2.85c5-2.1,13.84.88,9.56,9.36,3.3,1,3.23,3.23,3.23,3.23s4.18-4.8,9-2.1c1-1.35,5.6-.91,4.94,2.84,4.29-2.09,16.48-1.34,15.16,8.1C1064.52,1487,1005.54,1481.74,1005.54,1481.74Z" fill="#386553" fill-rule="evenodd"/>
    <path d="M168.54,1480.16s-.19-7.59-7.12-7.94c1-3-3.17-3-4-1.07-4.56-3.78-17-5.22-17,3.06-6.34-2.88-7.33,1.27-7.33,1.27s-3.76-11-14.06-9.73c-4.16-6.31-10.29-5.41-11.88-2.16-3.56-8.11-13.27-11.53-18.81-6.49-3.56-2.34-5.54,2.52-5.54,2.52s-3.77-6.12-9.31-3.42c-5.94-2.52-16.63,1.06-11.48,11.25-4,1.18-3.89,3.88-3.89,3.88s-5-5.76-10.77-2.52c-1.19-1.62-6.73-1.1-5.94,3.41-5.14-2.51-19.8-1.61-18.21,9.74C97.66,1486.47,168.54,1480.16,168.54,1480.16Z" fill="#386553" fill-rule="evenodd"/>
    <path d="M1769.54,1481.74s.17-6.32,5.93-6.61c-.82-2.54,2.64-2.54,3.3-.89,3.79-3.15,14.17-4.35,14.17,2.55,5.27-2.4,6.09,1,6.09,1s3.13-9.15,11.7-8.1c3.46-5.24,8.57-4.49,9.89-1.79,3-6.75,11-9.6,15.65-5.4,3-2,4.61,2.1,4.61,2.1s3.13-5.1,7.74-2.85c5-2.1,13.84.88,9.56,9.36,3.3,1,3.23,3.23,3.23,3.23s4.18-4.8,9-2.1c1-1.35,5.6-.91,4.94,2.84,4.29-2.09,16.48-1.34,15.16,8.1C1828.52,1487,1769.54,1481.74,1769.54,1481.74Z" fill="#386553" fill-rule="evenodd"/>
    <path d="M2047.13,1481.55s.19-8.16,6.86-8.53c-.95-3.28,3.05-3.28,3.81-1.15,4.38-4.07,16.39-5.62,16.39,3.29,6.1-3.1,7,1.35,7,1.35s3.62-11.81,13.53-10.45c4-6.78,9.91-5.81,11.44-2.33,3.43-8.71,12.77-12.39,18.1-7,3.43-2.51,5.34,2.72,5.34,2.72s3.62-6.59,9-3.68c5.71-2.71,16,1.13,11,12.08,3.81,1.28,3.74,4.18,3.74,4.18s4.84-6.2,10.36-2.71c1.15-1.74,6.48-1.18,5.72,3.67,5-2.7,19.06-1.73,17.53,10.46C2115.36,1488.32,2047.13,1481.55,2047.13,1481.55Z" fill="#386553" fill-rule="evenodd"/>
    <path d="M505.79,1481.21s.2-8.15,6.87-8.53c-1-3.28,3-3.28,3.81-1.15,4.38-4.06,16.39-5.61,16.39,3.29,6.1-3.09,7,1.36,7,1.36s3.62-11.81,13.53-10.46c4-6.77,9.91-5.8,11.44-2.32,3.42-8.71,12.76-12.39,18.1-7,3.43-2.52,5.34,2.71,5.34,2.71s3.62-6.58,8.95-3.68c5.72-2.71,16,1.14,11.06,12.09,3.81,1.27,3.73,4.18,3.73,4.18s4.84-6.2,10.37-2.71c1.14-1.75,6.48-1.19,5.72,3.66,5-2.7,19.06-1.73,17.53,10.47C574,1488,505.79,1481.21,505.79,1481.21Z" fill="#386553" fill-rule="evenodd"/>
    <path d="M1287.67,1463.93s10.28-4,12.22,6.91c5.13-2.44,6.5,3.46,6.5,3.46s2.31-5.81,7.18-3.56c3.63-4,19.86-3.76,18.74,7.5,5.12-2.13,5.87,0,5.87,0s1.25-18.2,14.23-15c9.37-7.34,19.11-2.47,18.11,5.79,4.25-.5,4.5,1.62,4.5,1.62s2.62-4.76,7-1.69c6.37-4.69,20.61,3.32,15.61,16.51-34.84,5.19-127.07,9.21-125.95-.83S1287.67,1463.93,1287.67,1463.93Z" fill="#386553" fill-rule="evenodd"/>
    <path d="M423.9,1484.86c-34.85,5.19-109.9-.56-109.9-.56V1482c-3.55-.29-6.87-.66-9.89-1.11-4-10.54,4.3-17.77,11-17.86h0a10.07,10.07,0,0,1,6.6.42c2,.95,3.72,2.95,4.41,6.86,5.14-2.45,6.51,3.45,6.51,3.45s2.31-5.81,7.18-3.56c3.62-4,19.86-3.75,18.73,7.5,5.12-2.13,5.87,0,5.87,0a28,28,0,0,1,.9-4.94c1.39-5.13,4.87-12.16,13.34-10.1,8.76-6.87,17.85-3.05,18.17,4.23a10.27,10.27,0,0,1-.06,1.56c4.24-.5,4.49,1.62,4.49,1.62s2.62-4.76,7-1.69a7.86,7.86,0,0,1,5.75-1.26C420.52,1467.94,427.66,1474.93,423.9,1484.86Z" fill="#386553" fill-rule="evenodd"/>
    <path d="M-2,1480H2562v523H-2Z" fill="url(#a)"/>
    <path d="M343,2093s-140-32.66-134-95,315-131.61,315-131.61,703-175.06,833-210.73S1596,1572,1596,1572s91-48.94,94-67-1-25-1-25h54l33.66,8.59L1868,1517l97,41.29s42,32,78,105.9S1988,1820,1988,1820s44,171,247,180-53.32,72.93-60,75S343,2093,343,2093Z" fill="url(#b)"/>
    <path d="M2470,2031.29H2119.52c-65.79-18.7-141.37-35.86-202.45-80.13-23.4-17-44.67-39.8-48.6-67.58-7.34-51.83,35-93.72,60.54-126.2s67.87-74.37,60.54-126.2c-4.25-30-28.47-53.77-53.83-71.13-60.64-41.52-132.46-61.63-197.22-80h8.5c80.67,19.46,163.36,41,242.66,78.33,34.65,16.3,73.1,37.38,98.86,69.71,33.95,42.6,26.79,88.26,20,129.34-6.62,39.94-13.91,84.33,17.69,126.32,24.13,32,60.84,53,94.36,69.42C2301.7,1992.78,2387.23,2011.32,2470,2031.29ZM1695.5,1480H1687c-4.75,37.23-51.2,57.38-79.55,71.11-53.51,25.91-111.64,44.57-169.78,62.05C1165.46,1695,878.84,1747.41,598.6,1811.61,464.91,1842.23,331,1873.4,202.41,1915c-49.78,16.08-99.66,33.33-144.63,57.76C34.44,1985.39,0,2000.23-4,2031.29H346.48c-13.64-27.27,8.69-45.92,24.1-58.6,31.48-25.9,71.17-42.6,109.71-58.1,104.61-42.07,216.13-72.17,327.05-101.83,239.88-64.16,488.35-114.34,718.31-198.75,45.58-16.73,91.82-34.63,131.22-61.2C1676.15,1539.79,1712.43,1513.82,1695.5,1480Zm362.17,551.29H408.33C370.4,1970.05,497,1928.22,527,1915.47c101.4-43,210.53-73.11,318.78-102.92,232.8-64.11,474.8-113.76,697-199,43.14-16.55,87-34.27,123.54-60.94,18.13-13.23,50.82-40.39,30.59-72.62h19.5l.56.28h1l-.58-.28H1737c60.81,17.85,128.54,37.24,185,77.36,25.46,18.09,47.76,42.36,49.52,72.19,3.19,54.09-44.93,95.13-74.18,127.83-29.06,32.49-74.9,71.92-74.34,124.54.3,28.88,20.18,53.34,44.86,71.89C1924.7,1996.53,1995.78,2013.12,2057.67,2031.29Zm-410.52-346.92h-15.81c-73,34.75-148.63,65.12-223.47,96.8h22.85C1503.22,1749.5,1576.56,1719.18,1647.15,1684.37Zm137.67-154.49h-4.55a46.51,46.51,0,0,1,3.26,6.11h5A51.13,51.13,0,0,0,1784.82,1529.88Zm-14.92-16.43h-3.36c1.38,1.3,2,2,3.3,3.24h3.59C1772.08,1515.4,1771.37,1514.75,1769.9,1513.45Zm-6.49-5.36h-3c1.22,1,1.81,1.51,3,2.52h3.16C1765.33,1509.6,1764.7,1509.09,1763.41,1508.09Zm-5.73-4.24H1755c1.07.8,1.6,1.2,2.62,2h2.81C1759.37,1505.05,1758.81,1504.65,1757.68,1503.85Zm-5-3.45h-2.41l2.32,1.64h2.53C1754.12,1501.38,1753.63,1501.06,1752.64,1500.4Zm-4.44-2.85H1746c.83.54,1.24.82,2,1.37h2.31C1749.5,1498.37,1749.07,1498.09,1748.2,1497.55Zm-3.93-2.4h-2l1.82,1.15h2.11Zm-3.49-2.05h-1.88l1.62,1h2Zm-4.87-1.76c.59.33.88.5,1.46.85h1.81c-.6-.35-.9-.52-1.51-.85Zm-1-1.54h-1.64l1.31.74h1.69Zm-2.52-1.35h-1.54c.48.25.71.39,1.18.65h1.59C1733.09,1488.84,1732.85,1488.7,1732.35,1488.45Zm-2.28-1.21h-1.45l1.07.58h1.49Zm-2.07-1.07h-1.38c.39.2.59.3,1,.52H1729C1728.61,1486.47,1728.4,1486.37,1728,1486.17Zm-1.9-1h-1.3l.89.47H1727Zm-7.87-4.34h1.07l-.62-.3h-1Zm1.27.62h1.11l-.67-.31h-1.09Zm1.36,1.69H1722l-.72-.35h-1.13Zm1.48.75h1.21c-.31-.14-.46-.22-.78-.38h-1.18C1721.89,1483.7,1722,1483.78,1722.34,1483.92Zm1.6.84h1.28l-.85-.42h-1.24Zm49.39,116.79h-9.77c-11.79,12.12-25.57,22-39.47,31.65h12.07C1749.34,1623.58,1762.39,1613.71,1773.33,1601.55Zm3.45-76.78H1781c-1.43-1.74-2.2-2.61-3.83-4.35h-3.87C1774.78,1522.16,1775.48,1523,1776.78,1524.77Zm16.79,39.69h-7.08c-1.43,6.23-2.71,9.35-6.22,15.57h8.21C1791.54,1573.81,1792.59,1570.69,1793.57,1564.46Zm.26-11.79a36.66,36.66,0,0,0-2.09-9.24h-5.54a36.09,36.09,0,0,1,1.42,9.24Z" fill="url(#c)"/>
    <path d="M1289,1480q-10,1.05-20,2.18c-38.08,4.3-76.14,9.3-114.47,10.69-22.27.82-44.58.41-66.87,0q-80.61-1.47-161.21-3c-37.19-.68-74.94-1.45-110.92-9.9Z" fill="#719131" fill-rule="evenodd"/>
    <path d="M2028,1480q5.89.62,11.8,1.28c22.48,2.55,45,5.5,67.57,6.32,13.15.48,26.33.24,39.48,0l95.17-1.75c22-.41,44.24-.86,65.48-5.85Z" fill="#719131" fill-rule="evenodd"/>
    <path d="M855.48,1573.73c-32.6-1.24-65.18-3-97.79-3.09-74.44-.23-149.23,8.08-223.08-1.22,71.56-8.68,143.84-8.92,215.93-9.16l-42.79-15.82q150.16-1,300.32,1.68L997.59,1553c-.29,3.19,4,4.52,7.19,4.73q58.2,3.83,116.53,4.93,29.6.56,59.17.43c14.3-.07,45-6,56.41,1.18-27.48,9.12-65.78,5.82-95,7.36q-47.13,2.51-94.32,3.59Q951.55,1577.38,855.48,1573.73Z" fill="#719131" fill-rule="evenodd"/>
    <path d="M315.19,1776.71c100.51-4,214.77-.93,315.59-12.77,24.31-2.86,47.84-6.6,70.23-11.51-111.53-16.53-224.42-21.24-337.12-24.75q-105.24-3.29-210.55-5.19-54.16-1-108.34-1.6-17.19-.21-34.34-.37L-4,1720.39v89.93c119.31,2.75,238.39,3,356.46-13.35a64.66,64.66,0,0,0-50.6-11.81C300,1779.21,309,1777,315.19,1776.71Z" fill="#719131" fill-rule="evenodd"/>
    <path d="M524.5,1754.35H-3.5s19.22-103.07,137.85-71.12a139.93,139.93,0,0,1,49.57-27.83l1.48-.45a60.6,60.6,0,0,1,14.82,9C216.1,1677,223.9,1701.3,214,1719.43a353.24,353.24,0,0,1,109.31,4.22c8.17-9.25,21-12.56,33.11-14.54a249,249,0,0,1,39.87-3.19A264.32,264.32,0,0,1,517,1735.42c.34.43.65.86,1,1.29A34.51,34.51,0,0,1,524.5,1754.35Z" fill="#2f5348" fill-rule="evenodd"/>
    <path d="M517,1735.42a264.32,264.32,0,0,0-120.69-29.5,249,249,0,0,0-39.87,3.19c-12.13,2-24.94,5.29-33.11,14.54A353.24,353.24,0,0,0,214,1719.43c9.9-18.13,2.1-42.41-13.78-55.52a60.6,60.6,0,0,0-14.82-9c45.1-13.52,90.14-.35,93.65,46.11C348.08,1681.11,483.61,1691.61,517,1735.42Z" fill="#4d7147" fill-rule="evenodd"/>
    <path d="M2345.87,1596.43c3.73,0,8.93-5.56,8-17.46-1-13.57-103.38.86-113.6,1-37.34.62-77.29-11.34-114.3,3.62,3.15,24.49,41.3,10.25,49.7,10.37l56.72.81Z" fill="#719131"/>
    <path d="M2347,1586H2133s7.79-42.18,55.87-29.11A56.67,56.67,0,0,1,2209,1545.5l1-.29a25,25,0,0,1,5.72,3.55c6.43,5.36,9.6,15.3,5.58,22.72a141,141,0,0,1,16.68-1,142.45,142.45,0,0,1,27.63,2.72c3.31-3.79,8.5-5.14,13.42-6a99.39,99.39,0,0,1,16.15-1.31,106.24,106.24,0,0,1,48.49,11.85c.26.32.51.65.74,1A14.22,14.22,0,0,1,2347,1586Z" fill="#2f5348" fill-rule="evenodd"/>
    <path d="M2343.6,1577.8a106.24,106.24,0,0,0-48.49-11.85,99.39,99.39,0,0,0-16.15,1.31c-4.92.81-10.11,2.16-13.42,6a142.45,142.45,0,0,0-27.63-2.72,141,141,0,0,0-16.68,1c4-7.42.85-17.36-5.58-22.72a25,25,0,0,0-5.72-3.55c18.16-5.35,36.18.1,37.59,19C2275.26,1556.1,2329.49,1560.25,2343.6,1577.8Z" fill="#4d7147" fill-rule="evenodd"/>
  </g>
  <g>
    <path d="M1398.93,1573.64s-69.65.91-69.71,3,175.35,4.72,177,1.47S1398.93,1573.64,1398.93,1573.64Z" fill="#719131" fill-rule="evenodd"/>
    <path d="M1416.64,1327h4.22l4.22,249.44h-12.66Z" fill="#af4f4f" fill-rule="evenodd"/>
    <path d="M1352.26,1357l66-27.52,63.35,34.81s-5.12-38.82-42.78-38.79c24.89-7.4,50.41-15.25,50.41-15.25s-35.69-25.09-62.69,7c2.57-10.38,9.56-41-27.53-56,6.77,26.35,13.94,51,13.94,51s-20.45-33.26-57.06-15.91c16.7,9.11,52.08,28.18,52.08,28.18S1366.34,1311.57,1352.26,1357Z" fill="#53ad49" fill-rule="evenodd"/>
  </g>
</svg>
