<svg xmlns="http://www.w3.org/2000/svg" width="360" height="270" viewBox="0 0 360 270">
  <g>
    <circle cx="180.5" cy="146.5" r="89.5" fill="#FCEBF9"/>
    <rect x="90.24" y="94.98" width="181.02" height="102.53" rx="10" transform="translate(156.35 -84.97) rotate(45)" fill="#fff"/>
    <path d="M276.05,164.81,162.19,51a13,13,0,0,0-18.38,0L85.45,109.31a13,13,0,0,0,0,18.38L199.31,241.55a13,13,0,0,0,18.38,0l58.36-58.36a13,13,0,0,0,0-18.38ZM87.57,125.57a10,10,0,0,1,0-14.14l58.36-58.36a10,10,0,0,1,14.14,0l10.37,10.37-72.5,72.5Zm12.49,12.49,72.5-72.5,82.88,82.88-72.5,72.5Zm173.87,43-58.36,58.36a10,10,0,0,1-14.14,0l-16.37-16.37,72.5-72.5,16.37,16.37A10,10,0,0,1,273.93,181.07Zm-26.25-63.78h-.21a1.5,1.5,0,0,1-1.28-1.69,33.51,33.51,0,0,0-38.29-37.7,1.5,1.5,0,0,1-.46-3A36.54,36.54,0,0,1,249.5,111a36.31,36.31,0,0,1-.34,5A1.49,1.49,0,0,1,247.68,117.29Zm19.09-4h-.14a1.49,1.49,0,0,1-1.35-1.63c.14-1.55.22-3.13.22-4.69A48.56,48.56,0,0,0,217,58.5a49.64,49.64,0,0,0-5.18.27,1.5,1.5,0,1,1-.32-3,53.18,53.18,0,0,1,5.5-.29A51.55,51.55,0,0,1,268.5,107c0,1.66-.08,3.33-.24,5A1.49,1.49,0,0,1,266.77,113.33ZM110.49,172h.21A1.51,1.51,0,0,1,112,173.7a33.54,33.54,0,0,0,33.19,38.09,34.6,34.6,0,0,0,5.1-.38,1.5,1.5,0,0,1,.46,3,36.54,36.54,0,0,1-42.06-36.08,36.27,36.27,0,0,1,.34-5A1.5,1.5,0,0,1,110.49,172ZM91.4,176h.14a1.49,1.49,0,0,1,1.35,1.63c-.14,1.55-.22,3.13-.22,4.69a48.55,48.55,0,0,0,48.5,48.5,49.64,49.64,0,0,0,5.18-.27,1.5,1.5,0,0,1,.32,3,50.53,50.53,0,0,1-5.5.29,51.55,51.55,0,0,1-51.5-51.5c0-1.65.08-3.33.24-5A1.49,1.49,0,0,1,91.4,176ZM181,140l-23.34-23.33a19.94,19.94,0,0,1,14.7-5.76,1.49,1.49,0,0,0,1.57-1.42,1.47,1.47,0,0,0-1.41-1.57,23,23,0,0,0-17,6.62L152,111a1.5,1.5,0,0,0-2.12,2.12l3.62,3.63c-7,8.53-7.16,20.41-.09,27.49s19,6.88,27.49-.1l23.32,23.32c-5.62,4.47-12.93,5.75-18.85,3.12a1.5,1.5,0,0,0-1.21,2.74c7,3.12,15.68,1.6,22.19-3.72l3.28,3.27a1.5,1.5,0,0,0,2.12-2.12l-3.19-3.19c8.25-8.57,8.92-21.49,1.42-29S189.55,131.77,181,140Zm-25.47,2.11c-5.91-5.91-5.72-15.9.11-23.22L178.74,142C171.42,147.85,161.43,148.05,155.51,142.13Zm50.91,23.33L183.1,142.14c7.41-7.08,18.41-7.75,24.74-1.42S213.5,158.05,206.42,165.46Z" fill="#ba3092"/>
    <path d="M39.5,171a7.5,7.5,0,1,1,7.5-7.5A7.5,7.5,0,0,1,39.5,171Zm0-12a4.5,4.5,0,1,0,4.5,4.5A4.51,4.51,0,0,0,39.5,159Zm271-103a7.5,7.5,0,1,1,7.5-7.5A7.5,7.5,0,0,1,310.5,56Zm0-12a4.5,4.5,0,1,0,4.5,4.5A4.51,4.51,0,0,0,310.5,44Zm-254,5h-4A1.5,1.5,0,0,1,51,47.5h0A1.5,1.5,0,0,1,52.5,46h4A1.5,1.5,0,0,1,58,47.5h0A1.5,1.5,0,0,1,56.5,49ZM78,47.5h0A1.5,1.5,0,0,0,76.5,46h-11A1.5,1.5,0,0,0,64,47.5h0A1.5,1.5,0,0,0,65.5,49h11A1.5,1.5,0,0,0,78,47.5ZM288.5,218h-4a1.5,1.5,0,0,1-1.5-1.5h0a1.5,1.5,0,0,1,1.5-1.5h4a1.5,1.5,0,0,1,1.5,1.5h0A1.5,1.5,0,0,1,288.5,218Zm21.5-1.5h0a1.5,1.5,0,0,0-1.5-1.5h-11a1.5,1.5,0,0,0-1.5,1.5h0a1.5,1.5,0,0,0,1.5,1.5h11A1.5,1.5,0,0,0,310,216.5ZM232.5,206a7.5,7.5,0,1,1,7.5-7.5A7.5,7.5,0,0,1,232.5,206Zm0-12a4.5,4.5,0,1,0,4.5,4.5A4.51,4.51,0,0,0,232.5,194ZM131.36,85.14h0a1.49,1.49,0,0,0-2.12,0l-10.6,10.6a1.49,1.49,0,0,0,0,2.12h0a1.49,1.49,0,0,0,2.12,0l10.6-10.6A1.49,1.49,0,0,0,131.36,85.14Z" fill="#F7C7EB"/>
  </g>
</svg>
