<svg xmlns="http://www.w3.org/2000/svg" width="360" height="270" viewBox="0 0 360 270">
  <g>
    <circle cx="177.5" cy="146.5" r="89.5" fill="#ebf2ff"/>
    <path d="M242,111H94a6,6,0,0,1-6-6V77a6,6,0,0,1,6-6H242a6,6,0,0,1,6,6v28A6,6,0,0,1,242,111Zm16,50V133a6,6,0,0,0-6-6H104a6,6,0,0,0-6,6v28a6,6,0,0,0,6,6H252A6,6,0,0,0,258,161Zm10,56V189a6,6,0,0,0-6-6H114a6,6,0,0,0-6,6v28a6,6,0,0,0,6,6H262A6,6,0,0,0,268,217Z" fill="#fff"/>
    <path d="M242,71a6,6,0,0,1,6,6v28a6,6,0,0,1-6,6H94a6,6,0,0,1-6-6V77a6,6,0,0,1,6-6H242m0-3H94a9,9,0,0,0-9,9v28a9,9,0,0,0,9,9H242a9,9,0,0,0,9-9V77a9,9,0,0,0-9-9Zm10,59a6,6,0,0,1,6,6v28a6,6,0,0,1-6,6H104a6,6,0,0,1-6-6V133a6,6,0,0,1,6-6H252m0-3H104a9,9,0,0,0-9,9v28a9,9,0,0,0,9,9H252a9,9,0,0,0,9-9V133a9,9,0,0,0-9-9Zm10,59a6,6,0,0,1,6,6v28a6,6,0,0,1-6,6H114a6,6,0,0,1-6-6V189a6,6,0,0,1,6-6H262m0-3H114a9,9,0,0,0-9,9v28a9,9,0,0,0,9,9H262a9,9,0,0,0,9-9V189a9,9,0,0,0-9-9Z" fill="#1e47ca"/>
    <rect x="108" y="137" width="20" height="20" rx="4" fill="#2248c8"/>
    <path d="M124.3,145.35l-8,8-4.59-4.59a1.49,1.49,0,0,1,0-2.12h0a1.49,1.49,0,0,1,2.12,0l2.47,2.47,5.89-5.89a1.51,1.51,0,0,1,2.12,0h0A1.49,1.49,0,0,1,124.3,145.35Z" fill="#fff"/>
    <path d="M206,96.76a5.32,5.32,0,0,1-4.07-1.68,6,6,0,0,1-1.58-4.26,6.13,6.13,0,0,1,1.55-4.29,5.8,5.8,0,0,1,7.35-.69A4.37,4.37,0,0,1,210.93,89H208.1a2.11,2.11,0,0,0-.69-1.3,2.16,2.16,0,0,0-1.47-.51,2.31,2.31,0,0,0-2,1,4.45,4.45,0,0,0-.7,2.63,4.25,4.25,0,0,0,.75,2.61,2.38,2.38,0,0,0,2,1,2.24,2.24,0,0,0,1.53-.53,2.1,2.1,0,0,0,.7-1.38H211a4.42,4.42,0,0,1-1.38,2.93A5.07,5.07,0,0,1,206,96.76Zm8.3-.05a3,3,0,0,1-2-.66,2.3,2.3,0,0,1-.77-1.84,2,2,0,0,1,.83-1.81,5.23,5.23,0,0,1,2.31-.76,7.54,7.54,0,0,0,1.64-.33.62.62,0,0,0,.44-.59c0-.58-.38-.88-1.12-.88a1.16,1.16,0,0,0-1.33,1.06h-2.4a2.7,2.7,0,0,1,1-2,4.11,4.11,0,0,1,2.71-.8,4.38,4.38,0,0,1,2.66.68,2.69,2.69,0,0,1,1,2.33v4.13c0,.65.09,1,.29,1.17v.11H217a2.28,2.28,0,0,1-.27-.91h0A2.77,2.77,0,0,1,214.27,96.71ZM215.1,95a1.76,1.76,0,0,0,1.2-.4,1.39,1.39,0,0,0,.45-1.07v-1a7.82,7.82,0,0,1-1.34.43,3.23,3.23,0,0,0-1.11.41.82.82,0,0,0-.32.69C214,94.74,214.36,95,215.1,95Zm5.41,1.46V88.31H223v1.28h.05a2.51,2.51,0,0,1,2.24-1.41,1.52,1.52,0,0,1,.51.06v2.24h-.07a2.35,2.35,0,0,0-1.92.43,2.38,2.38,0,0,0-.7,1.91V96.5Zm9.19.26a3.25,3.25,0,0,1-2.6-1.17,4.78,4.78,0,0,1-1-3.19,4.69,4.69,0,0,1,1-3.12,3.2,3.2,0,0,1,2.59-1.21A2.61,2.61,0,0,1,232,89.24H232V85.06h2.61V96.5h-2.5V95.4h0A2.63,2.63,0,0,1,229.7,96.76Zm.67-2.07a1.48,1.48,0,0,0,1.26-.63,2.72,2.72,0,0,0,.47-1.66,3.07,3.07,0,0,0-.44-1.72A1.41,1.41,0,0,0,230.4,90a1.38,1.38,0,0,0-1.21.64,2.94,2.94,0,0,0-.44,1.69,3,3,0,0,0,.43,1.7A1.39,1.39,0,0,0,230.37,94.69ZM203.14,152.5,200,141.06h2.86l1.16,4.8.52,2.83h0c.2-1,.39-1.95.56-2.72l1.07-4.91h2.62l1.07,4.88.55,2.75h0c.21-1.15.41-2.1.58-2.86l1.13-4.77H215L211.9,152.5h-2.76l-1.2-5.49-.4-2.13h0c-.12.81-.25,1.52-.38,2.13l-1.2,5.49Zm13.9.21a3,3,0,0,1-2-.66,2.3,2.3,0,0,1-.77-1.84,2,2,0,0,1,.83-1.81,5.19,5.19,0,0,1,2.31-.76,7.54,7.54,0,0,0,1.64-.33.62.62,0,0,0,.44-.59c0-.58-.38-.88-1.12-.88s-1.25.36-1.33,1.06h-2.4a2.67,2.67,0,0,1,1-2,4.11,4.11,0,0,1,2.71-.8,4.4,4.4,0,0,1,2.66.68,2.69,2.69,0,0,1,1,2.33v4.13c0,.65.09,1,.28,1.17v.11h-2.52a2.42,2.42,0,0,1-.28-.91h0A2.77,2.77,0,0,1,217,152.71Zm.83-1.67a1.71,1.71,0,0,0,1.19-.4,1.36,1.36,0,0,0,.46-1.07v-1a8.14,8.14,0,0,1-1.34.43,3.15,3.15,0,0,0-1.11.41.82.82,0,0,0-.32.69C216.75,150.74,217.13,151,217.87,151Zm5.43,1.46V141.06h2.64V152.5Zm3.92,0V141.06h2.64V152.5Zm7.9.24a4.27,4.27,0,0,1-3.18-1.22,4.33,4.33,0,0,1-1.19-3.13,4.27,4.27,0,0,1,1.18-3.09,4.35,4.35,0,0,1,5.83-.21,5.07,5.07,0,0,1,1.44,4h-5.89a2.38,2.38,0,0,0,.59,1.32,1.7,1.7,0,0,0,1.25.47,1.33,1.33,0,0,0,1.36-.82h2.55a3.3,3.3,0,0,1-1.38,1.94A4.37,4.37,0,0,1,235.12,152.74Zm-1.79-5.22h3.23a1.8,1.8,0,0,0-.49-1.16,1.43,1.43,0,0,0-1.06-.44C234.08,145.92,233.52,146.46,233.33,147.52Zm9.84,5.08a3.17,3.17,0,0,1-1.93-.51,2,2,0,0,1-.68-1.75v-4.4h-1.09v-1.63h1.09v-2.59h2.54v2.59h1.49v1.63H243.1v3.84a.71.71,0,0,0,.24.62,1.08,1.08,0,0,0,.68.18h.57v1.91A5.9,5.9,0,0,1,243.17,152.6Zm-36.39,55.9V197.06h5.16a4.32,4.32,0,0,1,3.12,1.06,3.68,3.68,0,0,1,1.15,2.81,3.64,3.64,0,0,1-1.07,2.71,3.84,3.84,0,0,1-2.8,1h-2.68v3.82Zm2.88-6.06h2.1a1.62,1.62,0,0,0,1.18-.42,1.49,1.49,0,0,0,.42-1.1,1.4,1.4,0,0,0-.42-1.08,1.66,1.66,0,0,0-1.18-.4h-2.1Zm9.41,6.27a3,3,0,0,1-2-.66,2.3,2.3,0,0,1-.77-1.84,2,2,0,0,1,.83-1.81,5.23,5.23,0,0,1,2.31-.76,7.54,7.54,0,0,0,1.64-.33.62.62,0,0,0,.44-.59c0-.58-.38-.88-1.12-.88A1.16,1.16,0,0,0,219,202.9h-2.4a2.7,2.7,0,0,1,1-2,4.11,4.11,0,0,1,2.71-.8,4.38,4.38,0,0,1,2.66.68,2.69,2.69,0,0,1,1,2.33v4.13c0,.65.09,1,.29,1.17v.11h-2.53a2.28,2.28,0,0,1-.27-.91h0A2.77,2.77,0,0,1,219.07,208.71Zm.83-1.67a1.76,1.76,0,0,0,1.2-.4,1.39,1.39,0,0,0,.45-1.07v-1a7.82,7.82,0,0,1-1.34.43,3.23,3.23,0,0,0-1.11.41.82.82,0,0,0-.32.69C218.78,206.74,219.16,207,219.9,207Zm5.52,4.16v-2h.9c.71,0,1.07-.29,1.07-.86a6.2,6.2,0,0,0-.49-1.7l-2.42-6.3h2.75l1.11,3.49.51,1.88h0a18.83,18.83,0,0,1,.48-1.88l1.07-3.49H233l-2.83,8.3a4.65,4.65,0,0,1-1.18,2,2.88,2.88,0,0,1-1.91.57Zm8.36-2.7V197.06h5.15a4.32,4.32,0,0,1,3.12,1.06,4,4,0,0,1,.09,5.52,3.87,3.87,0,0,1-2.81,1h-2.67v3.82Zm2.88-6.06h2.09a1.61,1.61,0,0,0,1.18-.42,1.49,1.49,0,0,0,.42-1.1,1.4,1.4,0,0,0-.42-1.08,1.64,1.64,0,0,0-1.18-.4h-2.09Zm9.4,6.27a3,3,0,0,1-2-.66,2.3,2.3,0,0,1-.77-1.84,2,2,0,0,1,.84-1.81,5.14,5.14,0,0,1,2.3-.76,7.4,7.4,0,0,0,1.64-.33.62.62,0,0,0,.44-.59c0-.58-.37-.88-1.12-.88A1.16,1.16,0,0,0,246,202.9h-2.4a2.7,2.7,0,0,1,1-2,4.13,4.13,0,0,1,2.71-.8,4.38,4.38,0,0,1,2.66.68,2.69,2.69,0,0,1,1,2.33v4.13c0,.65.1,1,.29,1.17v.11H248.8a2.28,2.28,0,0,1-.27-.91h0A2.8,2.8,0,0,1,246.06,208.71Zm.84-1.67a1.73,1.73,0,0,0,1.19-.4,1.39,1.39,0,0,0,.45-1.07v-1a7.82,7.82,0,0,1-1.34.43,3.08,3.08,0,0,0-1.1.41.79.79,0,0,0-.32.69C245.78,206.74,246.15,207,246.9,207Zm5.42,1.46V197.06H255V208.5Z" fill="#1e47ca"/>
    <path d="M114,84a1,1,0,0,1,1,1V97a1,1,0,0,1-1,1H102a1,1,0,0,1-1-1V85a1,1,0,0,1,1-1h12m0-3H102a4,4,0,0,0-4,4V97a4,4,0,0,0,4,4h12a4,4,0,0,0,4-4V85a4,4,0,0,0-4-4Zm20,115a1,1,0,0,1,1,1v12a1,1,0,0,1-1,1H122a1,1,0,0,1-1-1V197a1,1,0,0,1,1-1h12m0-3H122a4,4,0,0,0-4,4v12a4,4,0,0,0,4,4h12a4,4,0,0,0,4-4V197a4,4,0,0,0-4-4ZM59.5,64A7.5,7.5,0,1,1,67,56.5,7.5,7.5,0,0,1,59.5,64Zm0-12A4.5,4.5,0,1,0,64,56.5,4.51,4.51,0,0,0,59.5,52Zm248,176a7.5,7.5,0,1,1,7.5-7.5A7.5,7.5,0,0,1,307.5,228Zm0-12a4.5,4.5,0,1,0,4.5,4.5A4.51,4.51,0,0,0,307.5,216Zm-262-28h-4a1.5,1.5,0,0,1-1.5-1.5h0a1.5,1.5,0,0,1,1.5-1.5h4a1.5,1.5,0,0,1,1.5,1.5h0A1.5,1.5,0,0,1,45.5,188ZM67,186.5h0a1.5,1.5,0,0,0-1.5-1.5h-11a1.5,1.5,0,0,0-1.5,1.5h0a1.5,1.5,0,0,0,1.5,1.5h11A1.5,1.5,0,0,0,67,186.5ZM290.5,115h-4a1.5,1.5,0,0,1-1.5-1.5h0a1.5,1.5,0,0,1,1.5-1.5h4a1.5,1.5,0,0,1,1.5,1.5h0A1.5,1.5,0,0,1,290.5,115Zm21.5-1.5h0a1.5,1.5,0,0,0-1.5-1.5h-11a1.5,1.5,0,0,0-1.5,1.5h0a1.5,1.5,0,0,0,1.5,1.5h11A1.5,1.5,0,0,0,312,113.5Z" fill="#c4d2fc"/>
  </g>
</svg>
