<svg xmlns="http://www.w3.org/2000/svg" width="360" height="270" viewBox="0 0 360 270">
  <g>
    <circle cx="181.5" cy="146.5" r="89.5" fill="#ebf2ff"/>
    <path d="M290,145.88,287,169l-1.88,3H266c0,.33,0,.67,0,1a20,20,0,0,1-40,0c0-.33,0-.67,0-1H145c0,.33,0,.67,0,1a20,20,0,0,1-40,0c0-.33,0-.67,0-1H84l-1-3V132.38L117,92l7-6,8.62-4,6-1H204l7,2,5,3,21,33,40,6,7,5,4.18,7Z" fill="#fff"/>
    <path d="M44.5,203a7.5,7.5,0,1,1,7.5-7.5A7.5,7.5,0,0,1,44.5,203Zm0-12a4.5,4.5,0,1,0,4.5,4.5A4.51,4.51,0,0,0,44.5,191Zm259-110a7.5,7.5,0,1,1,7.5-7.5A7.5,7.5,0,0,1,303.5,81Zm0-12a4.5,4.5,0,1,0,4.5,4.5A4.51,4.51,0,0,0,303.5,69Zm-263-2h-4A1.5,1.5,0,0,1,35,65.5h0A1.5,1.5,0,0,1,36.5,64h4A1.5,1.5,0,0,1,42,65.5h0A1.5,1.5,0,0,1,40.5,67ZM62,65.5h0A1.5,1.5,0,0,0,60.5,64h-11A1.5,1.5,0,0,0,48,65.5h0A1.5,1.5,0,0,0,49.5,67h11A1.5,1.5,0,0,0,62,65.5ZM301.5,185h-4a1.5,1.5,0,0,1-1.5-1.5h0a1.5,1.5,0,0,1,1.5-1.5h4a1.5,1.5,0,0,1,1.5,1.5h0A1.5,1.5,0,0,1,301.5,185Zm21.5-1.5h0a1.5,1.5,0,0,0-1.5-1.5h-11a1.5,1.5,0,0,0-1.5,1.5h0a1.5,1.5,0,0,0,1.5,1.5h11A1.5,1.5,0,0,0,323,183.5ZM107,163H83v-3h26Zm122.5-3h-65a1.5,1.5,0,0,0-1.5,1.5h0a1.5,1.5,0,0,0,1.5,1.5h63Zm40-15h19a1.5,1.5,0,0,0,1.5-1.5h0a1.5,1.5,0,0,0-1.5-1.5h-19a1.5,1.5,0,0,0-1.5,1.5h0A1.5,1.5,0,0,0,269.5,145Zm-115,18h3a1.5,1.5,0,0,0,1.5-1.5h0a1.5,1.5,0,0,0-1.5-1.5h-3a1.5,1.5,0,0,0-1.5,1.5h0A1.5,1.5,0,0,0,154.5,163ZM153,132.5h0a1.5,1.5,0,0,0-1.5-1.5h-11a1.5,1.5,0,0,0-1.5,1.5h0a1.5,1.5,0,0,0,1.5,1.5h11A1.5,1.5,0,0,0,153,132.5Zm50,0h0a1.5,1.5,0,0,0-1.5-1.5h-11a1.5,1.5,0,0,0-1.5,1.5h0a1.5,1.5,0,0,0,1.5,1.5h11A1.5,1.5,0,0,0,203,132.5Z" fill="#c4d3fd"/>
    <path d="M255.8,171a10,10,0,0,0-19.8,2c0,.34,0,.67.05,1a10,10,0,0,0,19.9,0c0-.33.05-.66.05-1A10,10,0,0,0,255.8,171Zm-2.88,3a7,7,0,0,1-13.84,0,5.47,5.47,0,0,1-.08-1,6.91,6.91,0,0,1,.29-2,7,7,0,0,1,13.42,0,6.91,6.91,0,0,1,.29,2A5.47,5.47,0,0,1,252.92,174Zm2.88-3a10,10,0,0,0-19.8,2c0,.34,0,.67.05,1a10,10,0,0,0,19.9,0c0-.33.05-.66.05-1A10,10,0,0,0,255.8,171Zm-2.88,3a7,7,0,0,1-13.84,0,5.47,5.47,0,0,1-.08-1,6.91,6.91,0,0,1,.29-2,7,7,0,0,1,13.42,0,6.91,6.91,0,0,1,.29,2A5.47,5.47,0,0,1,252.92,174Zm2.88-3a10,10,0,0,0-19.8,2c0,.34,0,.67.05,1a10,10,0,0,0,19.9,0c0-.33.05-.66.05-1A10,10,0,0,0,255.8,171Zm-2.88,3a7,7,0,0,1-13.84,0,5.47,5.47,0,0,1-.08-1,6.91,6.91,0,0,1,.29-2,7,7,0,0,1,13.42,0,6.91,6.91,0,0,1,.29,2A5.47,5.47,0,0,1,252.92,174ZM134.8,171a10,10,0,0,0-19.8,2c0,.34,0,.67,0,1a10,10,0,0,0,19.9,0c0-.33.05-.66.05-1A10,10,0,0,0,134.8,171Zm-2.88,3a7,7,0,0,1-13.84,0,5.47,5.47,0,0,1-.08-1,6.91,6.91,0,0,1,.29-2,7,7,0,0,1,13.42,0,6.91,6.91,0,0,1,.29,2A5.47,5.47,0,0,1,131.92,174Zm2.88-3a10,10,0,0,0-19.8,2c0,.34,0,.67,0,1a10,10,0,0,0,19.9,0c0-.33.05-.66.05-1A10,10,0,0,0,134.8,171Zm-2.88,3a7,7,0,0,1-13.84,0,5.47,5.47,0,0,1-.08-1,6.91,6.91,0,0,1,.29-2,7,7,0,0,1,13.42,0,6.91,6.91,0,0,1,.29,2A5.47,5.47,0,0,1,131.92,174Zm2.88-3a10,10,0,0,0-19.8,2c0,.34,0,.67,0,1a10,10,0,0,0,19.9,0c0-.33.05-.66.05-1A10,10,0,0,0,134.8,171Zm-2.88,3a7,7,0,0,1-13.84,0,5.47,5.47,0,0,1-.08-1,6.91,6.91,0,0,1,.29-2,7,7,0,0,1,13.42,0,6.91,6.91,0,0,1,.29,2A5.47,5.47,0,0,1,131.92,174Zm123.88-3a10,10,0,0,0-19.8,2c0,.34,0,.67.05,1a10,10,0,0,0,19.9,0c0-.33.05-.66.05-1A10,10,0,0,0,255.8,171Zm-2.88,3a7,7,0,0,1-13.84,0,5.47,5.47,0,0,1-.08-1,6.91,6.91,0,0,1,.29-2,7,7,0,0,1,13.42,0,6.91,6.91,0,0,1,.29,2A5.47,5.47,0,0,1,252.92,174ZM134.8,171a10,10,0,0,0-19.8,2c0,.34,0,.67,0,1a10,10,0,0,0,19.9,0c0-.33.05-.66.05-1A10,10,0,0,0,134.8,171Zm-2.88,3a7,7,0,0,1-13.84,0,5.47,5.47,0,0,1-.08-1,6.91,6.91,0,0,1,.29-2,7,7,0,0,1,13.42,0,6.91,6.91,0,0,1,.29,2A5.47,5.47,0,0,1,131.92,174Zm2.88-3a10,10,0,0,0-19.8,2c0,.34,0,.67,0,1a10,10,0,0,0,19.9,0c0-.33.05-.66.05-1A10,10,0,0,0,134.8,171Zm-2.88,3a7,7,0,0,1-13.84,0,5.47,5.47,0,0,1-.08-1,6.91,6.91,0,0,1,.29-2,7,7,0,0,1,13.42,0,6.91,6.91,0,0,1,.29,2A5.47,5.47,0,0,1,131.92,174Zm123.88-3a10,10,0,0,0-19.8,2c0,.34,0,.67.05,1a10,10,0,0,0,19.9,0c0-.33.05-.66.05-1A10,10,0,0,0,255.8,171Zm-2.88,3a7,7,0,0,1-13.84,0,5.47,5.47,0,0,1-.08-1,6.91,6.91,0,0,1,.29-2,7,7,0,0,1,13.42,0,6.91,6.91,0,0,1,.29,2A5.47,5.47,0,0,1,252.92,174Zm2.88-3a10,10,0,0,0-19.8,2c0,.34,0,.67.05,1a10,10,0,0,0,19.9,0c0-.33.05-.66.05-1A10,10,0,0,0,255.8,171Zm-2.88,3a7,7,0,0,1-13.84,0,5.47,5.47,0,0,1-.08-1,6.91,6.91,0,0,1,.29-2,7,7,0,0,1,13.42,0,6.91,6.91,0,0,1,.29,2A5.47,5.47,0,0,1,252.92,174ZM134.8,171a10,10,0,0,0-19.8,2c0,.34,0,.67,0,1a10,10,0,0,0,19.9,0c0-.33.05-.66.05-1A10,10,0,0,0,134.8,171Zm-2.88,3a7,7,0,0,1-13.84,0,5.47,5.47,0,0,1-.08-1,6.91,6.91,0,0,1,.29-2,7,7,0,0,1,13.42,0,6.91,6.91,0,0,1,.29,2A5.47,5.47,0,0,1,131.92,174Zm144-50.85-.28-.09-.29,0-36-4.61a3.26,3.26,0,0,1-2.38-1.55c-4.19-7-14.29-23.7-17.51-28.52C215.37,82.14,208.13,79,198,79H141c-15.23,0-25.86,12.55-26.3,13.08L84.44,127.83a14.58,14.58,0,0,0-3.44,9.4v31.25A5.53,5.53,0,0,0,86.52,174H103A22,22,0,0,0,147,174H224A22,22,0,0,0,268,174h14.86a5.56,5.56,0,0,0,5.47-4.72c.41-2.85,1.32-9.36,2.68-20.93C292.79,133,281.94,125.15,276,123.15ZM144,174a19,19,0,0,1-38,0c0-.33,0-.67,0-1a19,19,0,0,1,38,0C144,173.33,144,173.67,144,174Zm121,0a19,19,0,0,1-38,0c0-.33,0-.67,0-1a19,19,0,0,1,38,0C265,173.33,265,173.67,265,174Zm23-26c-1.34,11.37-2.23,17.82-2.67,20.85a2.51,2.51,0,0,1-2.5,2.15H267.91a22,22,0,0,0-43.82,0H146.91a22,22,0,0,0-43.82,0H86.52A2.52,2.52,0,0,1,84,168.48V137.23a11.58,11.58,0,0,1,2.73-7.46L117,94s10-12,24-12h57c8,0,15,2,19,8,3.21,4.81,13.5,21.86,17.44,28.41a6.28,6.28,0,0,0,4.57,3L275,126S290,131,288,148Zm-42,15a10,10,0,0,0-10,10c0,.34,0,.67.05,1a10,10,0,0,0,19.9,0c0-.33.05-.66.05-1a10,10,0,0,0-10-10Zm6.92,11a7,7,0,0,1-13.84,0,5.47,5.47,0,0,1-.08-1,6.91,6.91,0,0,1,.29-2,7,7,0,0,1,13.42,0,6.91,6.91,0,0,1,.29,2A5.47,5.47,0,0,1,252.92,174ZM125,163a10,10,0,0,0-10,10c0,.34,0,.67,0,1a10,10,0,0,0,19.9,0c0-.33.05-.66.05-1a10,10,0,0,0-10-10Zm6.92,11a7,7,0,0,1-13.84,0,5.47,5.47,0,0,1-.08-1,6.91,6.91,0,0,1,.29-2,7,7,0,0,1,13.42,0,6.91,6.91,0,0,1,.29,2A5.47,5.47,0,0,1,131.92,174Zm2.88-3a10,10,0,0,0-19.8,2c0,.34,0,.67,0,1a10,10,0,0,0,19.9,0c0-.33.05-.66.05-1A10,10,0,0,0,134.8,171Zm-2.88,3a7,7,0,0,1-13.84,0,5.47,5.47,0,0,1-.08-1,6.91,6.91,0,0,1,.29-2,7,7,0,0,1,13.42,0,6.91,6.91,0,0,1,.29,2A5.47,5.47,0,0,1,131.92,174Zm123.88-3a10,10,0,0,0-19.8,2c0,.34,0,.67.05,1a10,10,0,0,0,19.9,0c0-.33.05-.66.05-1A10,10,0,0,0,255.8,171Zm-2.88,3a7,7,0,0,1-13.84,0,5.47,5.47,0,0,1-.08-1,6.91,6.91,0,0,1,.29-2,7,7,0,0,1,13.42,0,6.91,6.91,0,0,1,.29,2A5.47,5.47,0,0,1,252.92,174Zm2.88-3a10,10,0,0,0-19.8,2c0,.34,0,.67.05,1a10,10,0,0,0,19.9,0c0-.33.05-.66.05-1A10,10,0,0,0,255.8,171Zm-2.88,3a7,7,0,0,1-13.84,0,5.47,5.47,0,0,1-.08-1,6.91,6.91,0,0,1,.29-2,7,7,0,0,1,13.42,0,6.91,6.91,0,0,1,.29,2A5.47,5.47,0,0,1,252.92,174ZM134.8,171a10,10,0,0,0-19.8,2c0,.34,0,.67,0,1a10,10,0,0,0,19.9,0c0-.33.05-.66.05-1A10,10,0,0,0,134.8,171Zm-2.88,3a7,7,0,0,1-13.84,0,5.47,5.47,0,0,1-.08-1,6.91,6.91,0,0,1,.29-2,7,7,0,0,1,13.42,0,6.91,6.91,0,0,1,.29,2A5.47,5.47,0,0,1,131.92,174Zm93.79-57L213.07,95.41A15.07,15.07,0,0,0,200.12,88H143.76a27.92,27.92,0,0,0-21.57,10.15L107,116.45a4,4,0,0,0,3.09,6.55H222.25a4,4,0,0,0,3.46-6Zm-116.35,1.38,15.14-18.3A25,25,0,0,1,136,92.24V120H110.13A1,1,0,0,1,109.36,118.36ZM139,91.47a24.32,24.32,0,0,1,4.76-.47H175v29H139ZM222.25,120H178V91h22.12a12,12,0,0,1,10.36,5.93l12.64,21.56A1,1,0,0,1,222.25,120Z" fill="#2248c8"/>
  </g>
</svg>
