<svg xmlns="http://www.w3.org/2000/svg" xmlns:xlink="http://www.w3.org/1999/xlink" width="5635" height="927" viewBox="0 0 5635 927">
  <defs>
    <linearGradient id="a" x1="32.12" y1="1109.14" x2="5655.73" y2="117.54" gradientUnits="userSpaceOnUse">
      <stop offset="0" stop-color="#ebf0fd"/>
      <stop offset="1" stop-color="#dce4fb"/>
    </linearGradient>
  </defs>
  <path opacity="0.5" d="M2261.32,777.14C1506.33,809.36,756.56,923.45,0,924.8V927c756.61-1.58,1506.31-116.73,2261.32-149.41,675.68-29.24,1350.09,30,2023.14,82.47C4733.94,895.09,5184,926.28,5635,927v-2.2c-451-.71-901-31.53-1350.54-66.13C3611.38,806.87,2937,748.3,2261.32,777.14Zm0-6.21C1506.63,797.11,755.86,896.56,0,895.12v2.06C755.9,898.43,1506.61,798,2261.32,771.37,2936.51,747.58,3611.1,797,4284.46,840.6c449.7,29.09,899.76,55,1350.54,55.57V894c-450.77-.59-900.83-26.1-1350.54-54.77C3611.08,796.28,2936.48,747.52,2261.32,770.93Zm0-5.94C1506.87,785.67,755.28,871,0,867.34v1.93c755.32,3.53,1506.86-82.81,2261.32-103.86,674.79-18.83,1349.52,21,2023.14,55.72,449.88,23.15,900,43.74,1350.54,44.22v-2.2c-450.55-.47-900.65-20.68-1350.54-43.41C3610.83,785.7,2936.09,746.5,2261.32,765Zm0-5.69C1507.07,775,754.81,846.74,0,841.33v1.8c754.84,5.3,1507.06-67.4,2261.32-83.43,674.49-14.34,1349.3,16.18,2023.14,42,450,17.21,900.15,32.51,1350.54,32.86v-2.2c-450.38-.35-900.52-15.26-1350.54-32.05C3610.61,775.12,2935.8,745.27,2261.32,759.3Zm0-5.47C1507.23,765,754.44,823.62,0,817v1.69c754.46,6.59,1507.22-52.94,2261.32-64.42,674.31-10.27,1349.11,11.09,2023.14,28,450.11,11.27,900.27,21.27,1350.54,21.5v-2.2c-450.26-.22-900.43-9.85-1350.54-20.69C3610.42,764.56,2935.62,743.84,2261.32,753.83Zm0-5.25c-754,7.09-1507.16,53-2261.32,45.49v1.58c754.17,7.46,1507.35-39.33,2261.32-46.7,674.26-6.6,1348.94,5.8,2023.14,13.77,450.17,5.32,900.34,10,1350.54,10.15v-2.2c-450.2-.1-900.37-4.45-1350.54-9.34C3610.25,754,2935.58,742.23,2261.32,748.58Zm0-5.07C1507.45,746.92,754,780.48,0,772.54V774c754,7.92,1507.44-26.52,2261.32-30.17,674.33-3.27,1348.79.33,2023.14-.62Q4959.73,742.31,5635,742v-2.2q-675.27,0-1350.54,2C3610.1,743.44,2935.66,740.47,2261.32,743.51Zm0-4.89C1507.51,738.68,753.83,760.27,0,752.24v1.41c753.83,8,1507.51-14.4,2261.32-14.69q1011.79-.39,2023.14-15.18c450.16-6.58,900.33-12.43,1350.54-12.57V709c-450.21.15-900.39,6.37-1350.54,13.38Q3272.72,738.14,2261.32,738.62Zm0-4.74c-753.78-3-1507.56,7-2261.32-.86v1.34c753.76,7.84,1507.54-2.91,2261.32-.15,674.87,2.47,1348.54-11.12,2023.14-29.9,450.09-12.53,900.25-23.67,1350.54-23.92v-2.2c-450.3.26-900.45,11.77-1350.54,24.73C3609.85,722.34,2936.22,736.53,2261.32,733.88Zm0-4.61C1507.55,723.54,753.76,722.07,0,714.75V716c753.75,7.36,1507.55,8,2261.32,13.56,675.35,5,1348.43-17,2023.14-44.75,450-18.48,900.12-34.9,1350.54-35.28v-2.2c-450.43.39-900.56,17.19-1350.54,36.09C3609.74,711.79,2936.71,734.39,2261.32,729.27Zm0-4.5C1507.53,716.52,753.8,703.9,0,697.3v1.22c753.8,6.66,1507.54,18.49,2261.32,26.57,676,7.24,1348.33-23.09,2023.14-59.72C4734.3,641,5184.4,619.24,5635,618.73v-2.2c-450.62.51-900.71,22.61-1350.54,47.45C3609.64,701.25,2937.34,732.16,2261.32,724.77Zm0-4.4C1507.5,709.79,753.9,686.2,0,680.52v1.18c753.89,5.75,1507.5,28.56,2261.32,39,676.73,9.35,1348.24-29.22,2023.14-74.78,449.65-30.35,899.7-57.37,1350.54-58v-2.2c-450.86.63-900.9,28-1350.54,58.8C3609.55,690.71,2938.1,729.86,2261.32,720.37ZM3257,701.65c-331.95,18.13-663.32,20-995.63,14.39C1507.44,703.29,754,668.89,0,664.28v1.15c754,4.69,1507.44,38.32,2261.32,50.92,332.31,5.55,663.67,3.72,995.63-14.2,343-18.51,685.19-48.08,1027.51-75.72,449.43-36.28,899.42-68.6,1350.54-69.35v-2.2c-451.14.75-901.13,33.46-1350.54,70.16C3942.15,653,3599.93,682.92,3257,701.65Zm0-7.07c-331.9,21.06-663.23,23.72-995.63,17.19C1507.35,697,754.22,651.87,0,648.45v1.12c754.21,3.51,1507.36,47.84,2261.32,62.51,332.39,6.46,663.73,3.85,995.63-17,343.13-21.55,685.26-56,1027.51-88.12,449.16-42.19,899.09-79.84,1350.54-80.71v-2.2c-451.47.88-901.4,38.9-1350.54,81.52C3942.22,638.05,3600.09,672.8,3257,694.58Zm0-7.07c-331.82,24-663.14,27.44-995.63,20C1507.25,690.74,754.45,635,0,632.88V634c754.43,2.25,1507.26,57.2,2261.32,73.85,332.49,7.35,663.8,3.95,995.63-19.83,343.32-24.6,685.34-63.85,1027.51-100.52,448.85-48.1,898.71-91.07,1350.54-92.06v-2.2c-451.86,1-901.71,44.35-1350.54,92.87C3942.29,623.09,3600.28,662.69,3257,687.51Zm0-7.07c-331.73,26.91-663,31.15-995.63,22.89C1507.13,684.58,754.72,618.3,0,617.45v1.1c754.7,1,1507.14,66.47,2261.32,85.08,332.58,8.2,663.89,4,995.63-22.69,343.53-27.65,685.42-71.73,1027.51-112.92C4733,514,5182.74,465.72,5635,464.6v-2.2c-452.29,1.12-902.06,49.82-1350.54,104.23C3942.38,608.14,3600.49,652.57,3257,680.44Zm0-7.07c-331.62,29.84-662.94,34.87-995.63,25.74C1507,678.42,755,601.56,0,602v1.11c755-.36,1507,75.74,2261.32,96.29,332.68,9.07,664,4.09,995.63-25.53,343.76-30.72,685.52-79.63,1027.51-125.33C4732.57,488.68,5182.27,435,5635,433.77v-2.2c-452.77,1.25-902.46,55.3-1350.54,115.59C3942.47,593.18,3600.73,642.44,3257,673.37Zm0-7.07c-331.49,32.76-662.84,38.58-995.63,28.58C1506.83,672.19,755.38,584.72,0,586.43v1.12c755.35-1.62,1506.85,85.09,2261.32,107.63,332.78,9.94,664.13,4.17,995.63-28.37,344-33.78,685.62-87.53,1027.51-137.72C4732.14,463.35,5181.75,404.31,5635,403v-2.2c-453.29,1.37-902.89,60.8-1350.54,126.94C3942.58,578.21,3601,632.3,3257,666.3Zm0-7.07c-331.35,35.67-662.72,42.3-995.63,31.37C1506.65,665.85,755.78,567.67,0,570.57v1.15c755.75-2.82,1506.67,94.58,2261.32,119.19,332.9,10.86,664.27,4.29,995.63-31.17,344.3-36.85,685.73-95.42,1027.51-150.12,447.21-71.58,896.72-136,1350.54-137.5v-2.2c-453.86,1.5-903.36,66.31-1350.54,138.3C3942.69,563.25,3601.27,622.16,3257,659.23Zm0-7.07c-331.19,38.59-662.6,46-995.63,34.11C1506.45,659.32,756.23,550.34,0,554.3v1.18c756.2-3.89,1506.46,104.31,2261.32,131.11,333,11.81,664.43,4.45,995.63-33.92,344.6-39.93,685.86-103.33,1027.51-162.52,446.7-77.4,896.1-147.24,1350.54-148.85v-2.21c-454.48,1.62-903.87,71.85-1350.54,149.67C3942.82,548.27,3601.57,612,3257,652.16Zm0-7.07c-331,41.49-662.47,49.71-995.63,36.78C1506.22,652.56,756.74,532.6,0,537.48v1.22c756.7-4.82,1506.24,114.35,2261.32,143.48,333.15,12.86,664.59,4.7,995.63-36.58,344.93-43,686-111.23,1027.51-174.92,446.15-83.2,895.45-158.47,1350.54-160.21v-2.2c-455.14,1.74-904.43,77.4-1350.54,161C3943,533.3,3601.9,601.86,3257,645.09Zm0-7.07c-330.87,44.4-662.32,53.4-995.63,39.34C1506,645.5,757.31,514.38,0,520v1.28C757.26,515.7,1506,646,2261.32,677.69c333.3,14,664.75,5,995.63-39.16,345.27-46.11,686.13-119.15,1027.51-187.32,445.56-89,894.75-169.7,1350.54-171.57v-2.2c-455.85,1.87-905,83-1350.54,172.38C3943.09,518.31,3602.25,591.69,3257,638Zm0-7.06c-330.71,47.29-662.15,57.08-995.63,41.78C1505.69,638.09,757.94,495.57,0,501.64V503c757.89-6.05,1505.71,135.65,2261.32,170.1,333.47,15.2,664.91,5.47,995.63-41.62,345.64-49.21,686.28-127.06,1027.51-199.72C4729.39,337,5178.46,250.81,5635,248.81v-2.2c-456.59,2-905.66,88.59-1350.54,183.74C3943.24,503.32,3602.62,581.52,3257,631Zm0-7.07C2926.39,674.08,2595,684.64,2261.32,668,1505.38,630.26,758.65,476.07,0,482.35v1.41c758.6-6.27,1505.4,147.08,2261.32,184.57,333.66,16.56,665.06,6,995.63-43.94,346-52.33,686.44-135,1027.51-212.12C4728.72,311.8,5177.67,220.11,5635,218v-2.2c-457.38,2.12-906.33,94.21-1350.54,195.09C3943.4,488.33,3603,571.33,3257,623.89Zm0-7.07c-330.41,53.09-661.74,64.42-995.63,46.26C1505,622,759.44,455.8,0,462v1.5c759.38-6.19,1505.06,159.12,2261.32,200,333.88,18,665.21,6.77,995.63-46.12,346.44-55.45,686.6-142.92,1027.51-224.52C4728,286.63,5176.85,189.41,5635,187.16V185c-458.21,2.26-907,99.87-1350.54,206.45C3943.56,473.33,3603.42,561.14,3257,616.82Zm0-7.07c-330.29,56-661.49,68.07-995.63,48.26C1504.65,613.14,760.33,434.65,0,440.35v1.58c760.26-5.74,1504.68,171.86,2261.32,216.44,334.12,19.69,665.33,7.67,995.63-48.12,346.86-58.59,686.77-150.85,1027.51-236.92C4727.26,261.49,5176,158.71,5635,156.34v-2.21c-459.08,2.39-907.79,105.56-1350.54,217.81C3943.74,458.32,3603.85,550.94,3257,609.75Zm0-7.07c-330.2,58.9-661.21,71.71-995.63,50.06C1504.24,603.71,761.31,412.52,0,417.36v1.69c761.24-4.91,1504.27,185.36,2261.32,234.07,334.4,21.52,665.43,8.75,995.63-49.94,347.31-61.73,687-158.8,1027.51-249.32C4726.47,236.37,5175.07,128,5635,125.51v-2.2c-460,2.51-908.59,111.27-1350.54,229.16C3943.92,443.31,3604.29,540.72,3257,602.68Zm0-7.07c-330.14,61.81-660.89,75.34-995.63,51.65C1503.78,593.64,762.41,389.33,0,392.87v1.8c762.33-3.64,1503.81,199.71,2261.32,253C2596,671.19,2926.81,657.71,3257,596.11c347.78-64.89,687.14-166.75,1027.51-261.72C4725.64,211.29,5174.13,97.32,5635,94.68v-2.2c-460.94,2.64-909.42,117-1350.54,240.52C3944.11,428.29,3604.76,530.49,3257,595.61Zm0-7.07c-330.12,64.72-660.52,79-995.63,53C1503.28,582.86,763.64,365,0,366.74v1.92c763.54-1.9,1503.31,215,2261.32,273.3C2596.4,667.74,2926.83,653.56,3257,589c348.26-68,687.34-174.7,1027.51-274.12C4724.78,186.24,5173.15,66.62,5635,63.86V61.65c-461.92,2.78-910.29,122.8-1350.54,251.88C3944.3,413.26,3605.24,520.25,3257,588.54Zm0-7.07c-330.16,67.65-660.11,82.55-995.63,54.12C1502.73,571.3,765,339.38,0,338.82v2.06c764.89.37,1502.77,231.27,2261.32,295.14,335.49,28.25,665.48,13.39,995.63-54,348.76-71.24,687.54-182.68,1027.51-286.53C4723.87,161.23,5172.13,35.92,5635,33v-2.2c-462.95,2.9-911.19,128.61-1350.54,263.23C3944.51,398.23,3605.75,510,3257,581.47ZM4284.46,274.59C3944.72,383.19,3606.26,499.74,3257,574.4c-330.26,70.59-659.64,86.14-995.63,55C1502.13,558.91,766.5,312.43,0,309v2.2c766.39,3.2,1502.17,248.62,2261.32,318.61,335.95,31,665.38,15.47,995.63-54.9C3606.23,500.47,3944.7,384.26,4284.46,276,4722.93,136.25,5171.08,5.23,5635,2.2V0C5171,3,4722.86,134.47,4284.46,274.59Z" fill="url(#a)"/>
</svg>
