<svg xmlns="http://www.w3.org/2000/svg" xmlns:xlink="http://www.w3.org/1999/xlink" width="5635" height="927" viewBox="0 0 5635 927">
  <defs>
    <linearGradient id="a" x1="32.12" y1="-181.14" x2="5655.73" y2="810.46" gradientTransform="translate(5635 928) rotate(180)" gradientUnits="userSpaceOnUse">
      <stop offset="0" stop-color="#ebf0fd"/>
      <stop offset="1" stop-color="#dce4fb"/>
    </linearGradient>
  </defs>
  <path d="M3373.68,777.14c755,32.22,1504.76,146.31,2261.32,147.66V927c-756.61-1.58-1506.31-116.73-2261.32-149.41-675.68-29.24-1350.09,30-2023.14,82.47C901.06,895.09,451,926.28,0,927v-2.2c451-.71,901-31.53,1350.54-66.13C2023.62,806.87,2698,748.3,3373.68,777.14Zm0-6.21C4128.37,797.11,4879.14,896.56,5635,895.12v2.06C4879.1,898.43,4128.39,798,3373.68,771.37,2698.49,747.58,2023.9,797,1350.54,840.6,900.84,869.69,450.78,895.6,0,896.17V894c450.77-.59,900.83-26.1,1350.54-54.77C2023.92,796.28,2698.52,747.52,3373.68,770.93Zm0-5.94c754.45,20.68,1506,106,2261.32,102.35v1.93c-755.32,3.53-1506.86-82.81-2261.32-103.86-674.79-18.83-1349.52,21-2023.14,55.72C900.66,844.28,450.54,864.87,0,865.35v-2.2c450.55-.47,900.65-20.68,1350.54-43.41,673.63-34,1348.37-73.24,2023.14-54.74Zm0-5.69c754.25,15.7,1506.51,87.44,2261.32,82v1.8c-754.84,5.3-1507.06-67.4-2261.32-83.43-674.49-14.34-1349.3,16.18-2023.14,42C900.54,818.91,450.39,834.21,0,834.56v-2.2c450.38-.35,900.52-15.26,1350.54-32.05C2024.39,775.12,2699.2,745.27,3373.68,759.3Zm0-5.47C4127.77,765,4880.56,823.62,5635,817v1.69c-754.46,6.59-1507.22-52.94-2261.32-64.42-674.31-10.27-1349.11,11.09-2023.14,28C900.43,793.54,450.27,803.54,0,803.77v-2.2c450.26-.22,900.43-9.85,1350.54-20.69C2024.58,764.56,2699.38,743.84,3373.68,753.83Zm0-5.25c754,7.09,1507.16,53,2261.32,45.49v1.58c-754.17,7.46-1507.35-39.33-2261.32-46.7-674.26-6.6-1348.94,5.8-2023.14,13.77C900.37,768,450.2,772.72,0,772.87v-2.2c450.2-.1,900.37-4.45,1350.54-9.34C2024.75,754,2699.42,742.23,3373.68,748.58Zm0-5.07c753.87,3.41,1507.32,37,2261.32,29V774c-754,7.92-1507.44-26.52-2261.32-30.17-674.33-3.27-1348.79.33-2023.14-.62Q675.27,742.31,0,742v-2.2q675.27,0,1350.54,2C2024.9,743.44,2699.34,740.47,3373.68,743.51Zm0-4.89c753.81.06,1507.49,21.65,2261.32,13.62v1.41c-753.83,8-1507.51-14.4-2261.32-14.69q-1011.79-.39-2023.14-15.18C900.38,717.2,450.21,711.35,0,711.21V709c450.21.15,900.39,6.37,1350.54,13.38Q2362.28,738.15,3373.68,738.62Zm0-4.74c753.78-3,1507.56,7,2261.32-.86v1.34c-753.76,7.84-1507.54-2.91-2261.32-.15-674.87,2.47-1348.54-11.12-2023.14-29.9C900.45,691.78,450.29,680.64,0,680.39v-2.2c450.3.26,900.45,11.77,1350.54,24.73C2025.15,722.34,2698.78,736.53,3373.68,733.88Zm0-4.61c753.77-5.73,1507.56-7.2,2261.32-14.52V716c-753.75,7.36-1507.55,8-2261.32,13.56-675.35,5-1348.43-17-2023.14-44.75C900.54,666.33,450.42,649.91,0,649.53v-2.2c450.43.39,900.56,17.19,1350.54,36.09C2025.26,711.79,2698.29,734.39,3373.68,729.27Zm0-4.5C4127.47,716.52,4881.2,703.9,5635,697.3v1.22c-753.8,6.66-1507.54,18.49-2261.32,26.57-676,7.24-1348.33-23.09-2023.14-59.72C900.7,641,450.6,619.24,0,618.73v-2.2C450.62,617,900.71,639.14,1350.54,664,2025.36,701.25,2697.66,732.16,3373.68,724.77Zm0-4.4C4127.5,709.79,4881.1,686.2,5635,680.52v1.18c-753.89,5.75-1507.5,28.56-2261.32,39-676.73,9.35-1348.24-29.22-2023.14-74.78C900.89,615.57,450.84,588.55,0,587.92v-2.2c450.86.63,900.9,28,1350.54,58.8C2025.45,690.71,2696.9,729.86,3373.68,720.37ZM2378,701.65c331.95,18.13,663.32,20,995.63,14.39C4127.56,703.29,4881,668.89,5635,664.28v1.15c-754,4.69-1507.44,38.32-2261.32,50.92-332.31,5.55-663.67,3.72-995.63-14.2-343-18.51-685.19-48.08-1027.51-75.72C901.11,590.15,451.12,557.83,0,557.08v-2.2c451.14.75,901.13,33.46,1350.54,70.16C1692.85,653,2035.07,682.92,2378,701.65Zm0-7.07c331.9,21.06,663.23,23.72,995.63,17.19,754-14.77,1507.15-59.9,2261.37-63.32v1.12c-754.21,3.51-1507.36,47.84-2261.32,62.51-332.39,6.46-663.73,3.85-995.63-17-343.13-21.55-685.26-56-1027.51-88.12C901.38,564.77,451.45,527.12,0,526.25v-2.2c451.47.88,901.4,38.9,1350.54,81.52C1692.78,638.05,2034.91,672.8,2378,694.58Zm0-7.07c331.82,24,663.14,27.44,995.63,20C4127.75,690.74,4880.55,635,5635,632.88V634c-754.43,2.25-1507.26,57.2-2261.32,73.85-332.49,7.35-663.8,3.95-995.63-19.83-343.32-24.6-685.34-63.85-1027.51-100.52C901.69,539.4,451.83,496.43,0,495.44v-2.2c451.86,1,901.71,44.35,1350.54,92.87C1692.71,623.09,2034.72,662.69,2378,687.51Zm0-7.07c331.73,26.91,663,31.15,995.63,22.89,754.24-18.75,1506.65-85,2261.37-85.88v1.1c-754.7,1-1507.14,66.47-2261.32,85.08-332.58,8.2-663.89,4-995.63-22.69C2034.52,653.29,1692.63,609.21,1350.54,568,902,514,452.26,465.72,0,464.6v-2.2c452.29,1.12,902.06,49.82,1350.54,104.23C1692.62,608.14,2034.51,652.57,2378,680.44Zm0-7.07c331.62,29.84,662.94,34.87,995.63,25.74C4128,678.42,4880,601.56,5635,602v1.11c-755-.36-1507,75.74-2261.32,96.29-332.68,9.07-664,4.09-995.63-25.53-343.76-30.72-685.52-79.63-1027.51-125.33C902.43,488.68,452.73,435,0,433.77v-2.2c452.77,1.25,902.46,55.3,1350.54,115.59C1692.53,593.18,2034.27,642.44,2378,673.37Zm0-7.07c331.49,32.76,662.84,38.58,995.63,28.58,754.54-22.69,1506-110.16,2261.37-108.45v1.12c-755.35-1.62-1506.85,85.09-2261.32,107.63-332.78,9.94-664.13,4.17-995.63-28.37-344-33.78-685.62-87.53-1027.51-137.72C902.86,463.35,453.25,404.31,0,403v-2.2c453.29,1.37,902.89,60.8,1350.54,126.94C1692.42,578.21,2034,632.3,2378,666.3Zm0-7.07c331.35,35.67,662.72,42.3,995.63,31.37,754.72-24.75,1505.59-122.93,2261.37-120v1.15c-755.75-2.82-1506.67,94.58-2261.32,119.19-332.9,10.86-664.27,4.29-995.63-31.17-344.3-36.85-685.73-95.42-1027.51-150.12C903.33,438,453.82,373.62,0,372.12v-2.2c453.86,1.5,903.36,66.31,1350.54,138.3C1692.31,563.25,2033.73,622.16,2378,659.23Zm0-7.07c331.19,38.59,662.6,46,995.63,34.11,754.92-26.95,1505.14-135.93,2261.37-132v1.18c-756.2-3.89-1506.46,104.31-2261.32,131.11-333,11.81-664.43,4.45-995.63-33.92-344.6-39.93-685.86-103.33-1027.51-162.52C903.84,412.75,454.44,342.91,0,341.3v-2.21c454.48,1.62,903.87,71.85,1350.54,149.67C1692.18,548.27,2033.43,612,2378,652.16Zm0-7.07c331,41.49,662.47,49.71,995.63,36.78C4128.78,652.56,4878.26,532.6,5635,537.48v1.22c-756.7-4.82-1506.24,114.35-2261.32,143.48-333.15,12.86-664.59,4.7-995.63-36.58-344.93-43-686-111.23-1027.51-174.92C904.39,387.48,455.09,312.21,0,310.47v-2.2c455.14,1.74,904.43,77.4,1350.54,161C1692,533.3,2033.1,601.86,2378,645.09Zm0-7.07c330.87,44.4,662.32,53.4,995.63,39.34C4129,645.5,4877.69,514.38,5635,520v1.28C4877.74,515.7,4129,646,3373.68,677.69c-333.3,14-664.75,5-995.63-39.16-345.27-46.11-686.13-119.15-1027.51-187.32C905,362.21,455.79,281.51,0,279.64v-2.2c455.85,1.87,905,83,1350.54,172.38C1691.91,518.31,2032.75,591.69,2378,638Zm0-7.06c330.71,47.29,662.15,57.08,995.63,41.78C4129.31,638.09,4877.06,495.57,5635,501.64V503C4877.11,497,4129.29,638.65,3373.68,673.1c-333.47,15.2-664.91,5.47-995.63-41.62-345.64-49.21-686.28-127.06-1027.51-199.72C905.61,337,456.54,250.81,0,248.81v-2.2c456.59,2,905.66,88.59,1350.54,183.74C1691.76,503.32,2032.38,581.52,2378,631Zm0-7.07c330.61,50.19,662,60.75,995.68,44.11C4129.62,630.26,4876.35,476.07,5635,482.35v1.41c-758.6-6.27-1505.4,147.08-2261.32,184.57-333.66,16.56-665.06,6-995.63-43.94-346-52.33-686.44-135-1027.51-212.12C906.28,311.8,457.33,220.11,0,218v-2.2C457.38,217.92,906.33,310,1350.54,410.89,1691.6,488.33,2032,571.33,2378,623.89Zm0-7.07c330.41,53.09,661.74,64.42,995.63,46.26C4130,622,4875.56,455.8,5635,462v1.5c-759.38-6.19-1505.06,159.12-2261.32,200-333.88,18-665.21,6.77-995.63-46.12-346.44-55.45-686.6-142.92-1027.51-224.52C907,286.63,458.15,189.41,0,187.16V185c458.21,2.26,907,99.87,1350.54,206.45,340.9,81.88,681,169.69,1027.46,225.37Zm0-7.07c330.29,56,661.49,68.07,995.63,48.26,756.72-44.87,1501-223.36,2261.37-217.66v1.58c-760.26-5.74-1504.68,171.86-2261.32,216.44-334.12,19.69-665.33,7.67-995.63-48.12-346.86-58.59-686.77-150.85-1027.51-236.92C907.74,261.49,459,158.71,0,156.34v-2.21c459.08,2.39,907.79,105.56,1350.54,217.81,340.72,86.38,680.61,179,1027.46,237.81Zm0-7.07c330.2,58.9,661.21,71.71,995.63,50.06,757.13-49,1500.06-240.22,2261.37-235.38v1.69c-761.24-4.91-1504.27,185.36-2261.32,234.07-334.4,21.52-665.43,8.75-995.63-49.94-347.31-61.73-687-158.8-1027.51-249.32C908.53,236.37,459.93,128,0,125.51v-2.2c460,2.51,908.59,111.27,1350.54,229.16C1691.08,443.31,2030.71,540.72,2378,602.68Zm0-7.07c330.14,61.81,660.89,75.34,995.63,51.65,757.59-53.62,1499-257.93,2261.37-254.39v1.8c-762.33-3.64-1503.81,199.71-2261.32,253-334.68,23.52-665.49,10-995.68-51.56-347.78-64.89-687.14-166.75-1027.51-261.72C909.36,211.29,460.87,97.32,0,94.68v-2.2c460.94,2.64,909.42,117,1350.54,240.52,340.35,95.29,679.7,197.49,1027.46,262.61Zm0-7.07c330.12,64.72,660.52,79,995.63,53C4131.72,582.86,4871.36,365,5635,366.74v1.92c-763.54-1.9-1503.31,215-2261.32,273.3-335.08,25.78-665.51,11.6-995.68-53-348.26-68-687.34-174.7-1027.51-274.12C910.22,186.24,461.85,66.62,0,63.86V61.65c461.92,2.78,910.29,122.8,1350.54,251.88,340.16,99.73,679.22,206.72,1027.46,275Zm0-7.07c330.16,67.65,660.11,82.55,995.63,54.12C4132.27,571.3,4870,339.38,5635,338.82v2.06c-764.89.37-1502.77,231.27-2261.32,295.14-335.49,28.25-665.48,13.39-995.63-54-348.76-71.24-687.54-182.68-1027.51-286.53C911.13,161.23,462.87,35.92,0,33V30.8C463,33.7,911.19,159.41,1350.54,294c340,104.2,678.71,216,1027.46,287.44ZM1350.54,274.59C1690.28,383.19,2028.74,499.74,2378,574.4c330.26,70.59,659.64,86.14,995.63,55C4132.87,558.91,4868.5,312.43,5635,309v2.2c-766.39,3.2-1502.17,248.62-2261.32,318.61-335.95,31-665.38,15.47-995.63-54.9C2028.77,500.47,1690.3,384.26,1350.54,276,912.07,136.25,463.92,5.23,0,2.2V0C464,3,912.14,134.47,1350.54,274.59Z" opacity="0.5" fill="url(#a)" style="isolation: isolate"/>
</svg>
